<?xml version="1.0" encoding="utf-8"?>
<!-- Generator: Adobe Illustrator 27.5.0, SVG Export Plug-In . SVG Version: 6.00 Build 0)  -->
<svg version="1.1" xmlns="http://www.w3.org/2000/svg" xmlns:xlink="http://www.w3.org/1999/xlink" x="0px" y="0px"
	 viewBox="0 0 500 500" style="enable-background:new 0 0 500 500;" xml:space="preserve">
<g id="Background_Complete">
	<g>
		<g>
			<path style="fill:#E0E0E0;" d="M24.069,215.546l16.71,43.703h47.987c0,0-13.711-6.427-19.281-12.425
				c-5.57-5.998-30.849-31.277-30.849-31.277H24.069z"/>
		</g>
		<g>
			<path style="fill:#EBEBEB;" d="M30.456,259.249h291.107c6.108,0,12.204,0.959,17.923,3.104c1.687,0.633,3.374,1.374,4.925,2.236
				c5.92,3.288,6.08,11.87,0.227,15.276c-4.662,2.712-12.307,5.271-24.557,5.271c-26.066,0-227.442-3.796-227.442-3.796
				S33.352,272.172,30.456,259.249z"/>
		</g>
		<g>
			<path style="fill:#E0E0E0;" d="M91.4,266.037c0,0,0.273,2.184,3.368,2.366h63.529v-2.366H91.4z"/>
		</g>
		<g>
			<rect x="172.222" y="266.037" style="fill:#E0E0E0;" width="80.731" height="2.366"/>
		</g>
		<g>
			<rect x="267.13" y="266.037" style="fill:#E0E0E0;" width="47.238" height="2.366"/>
		</g>
		<g>
			<path style="fill:#E0E0E0;" d="M333.023,265.269v2.656h14.495c0,0-1.918-2.471-3.611-3.337L333.023,265.269z"/>
		</g>
		<g>
			<rect x="315.098" y="285.135" style="fill:#E0E0E0;" width="2.429" height="8.181"/>
		</g>
		<g>
			<path style="fill:#E0E0E0;" d="M317.526,285.455c0,0-1.982-8.153-26.777-8.153c-23.672,0-186.608,0-199.755,0
				c-3.622-0.56-30.198-2.828-28.967-18.373H29.951c0,0-1.992,2.958,13.804,10.583c8.373,4.042,32.783,10.997,42.912,11.867
				c4.007,0.344,6.712,0.271,9.516,0.319L317.526,285.455z"/>
		</g>
		<g>
			<path style="fill:#EBEBEB;" d="M187.982,273.129c0,0-35.97-1.515-35.77,11.15c0,0-1.692,11.095,35.77,8.908V273.129z"/>
		</g>
		<g>
			<path style="fill:#EBEBEB;" d="M186.264,280.751c0,0,10.831-0.407,12.637,2.404c0,0-5.616,1.751-12.637,1.98V280.751z"/>
		</g>
		<g>
			<g>
				<path style="fill:#E0E0E0;" d="M187.982,293.187c-0.014,0-0.028-0.128-0.041-0.375c-0.011-0.294-0.023-0.652-0.039-1.086
					c-0.018-1.015-0.041-2.385-0.07-4.079c-0.023-3.558-0.056-8.467-0.094-14.187l0.231,0.244c-3.167-0.157-6.623-0.442-10.23-0.525
					c-2.063-0.046-4.078-0.022-6.008,0.153c-1.922,0.191-3.794,0.48-5.544,0.801c-3.515,0.631-6.558,1.747-8.877,3.119
					c-2.322,1.346-4.093,2.745-4.685,4.138c-0.603,1.375-0.378,2.274-0.464,2.26c-0.013,0.001-0.053-0.207-0.063-0.61
					c-0.007-0.401,0.043-1.014,0.341-1.732c0.569-1.492,2.366-2.977,4.684-4.373c2.329-1.435,5.428-2.611,8.973-3.273
					c1.774-0.339,3.627-0.636,5.588-0.838c1.958-0.185,3.992-0.212,6.067-0.166c3.628,0.084,7.089,0.38,10.244,0.557l0.233,0.013
					l-0.001,0.231c-0.038,5.72-0.07,10.63-0.094,14.187c-0.029,1.695-0.053,3.065-0.07,4.079c-0.016,0.434-0.029,0.792-0.039,1.086
					C188.01,293.059,187.997,293.187,187.982,293.187z"/>
			</g>
		</g>
		<g>
			<g>
				<path style="fill:#E0E0E0;" d="M182.028,293.354c-0.144,0-0.26-4.514-0.26-10.082c0-5.569,0.117-10.083,0.26-10.083
					s0.26,4.513,0.26,10.083C182.289,288.84,182.172,293.354,182.028,293.354z"/>
			</g>
		</g>
		<g>
			<g>
				<path style="fill:#E0E0E0;" d="M179.19,293.472c-0.144,0-0.26-4.563-0.26-10.19c0-5.629,0.117-10.191,0.26-10.191
					c0.144,0,0.26,4.562,0.26,10.191C179.45,288.909,179.333,293.472,179.19,293.472z"/>
			</g>
		</g>
	</g>
	<g>
		<g>
			<path style="fill:#E0E0E0;" d="M343.782,218.44c0,0.144-68.048,0.26-151.97,0.26c-83.951,0-151.984-0.117-151.984-0.26
				s68.033-0.26,151.984-0.26C275.734,218.179,343.782,218.296,343.782,218.44z"/>
		</g>
	</g>
	<g>
		<path style="fill:#F5F5F5;" d="M361.511,77.218c0.817-5.938-7.563-10.823-13.86-11.331c-3.003-0.242-6.122,0.217-8.967-0.774
			c-6.164-2.148-8.626-10.112-14.641-12.648c-4.497-1.896-9.673-0.208-14.032,1.986c-4.359,2.194-8.667,4.955-13.537,5.267
			c-4.236,0.271-8.836-1.3-12.543,0.77c-2.762,1.542-4.209,4.724-6.754,6.602c-2.49,1.837-5.739,2.226-8.829,2.394
			c-3.09,0.168-6.289,0.199-9.103,1.488s-5.141,4.263-4.557,7.302L361.511,77.218z"/>
	</g>
	<g>
		<polyline style="fill:#E0E0E0;" points="171.261,218.44 206.821,206.921 222,206.921 269.475,200.361 323.954,195.402 
			348.94,183.921 415.805,196.378 435.706,198.234 446.429,204.951 461.363,218.44 171.261,218.44 		"/>
	</g>
	<g>
		<path style="fill:#EBEBEB;" d="M266.818,154.782c1.06-7.7-9.808-14.035-17.974-14.693c-3.894-0.314-7.939,0.281-11.629-1.004
			c-7.993-2.786-11.186-13.113-18.986-16.402c-5.831-2.459-12.544-0.27-18.197,2.575c-5.653,2.845-11.239,6.425-17.555,6.83
			c-5.493,0.352-11.459-1.686-16.265,0.998c-3.581,2-5.458,6.126-8.759,8.561c-3.23,2.382-7.442,2.886-11.449,3.104
			c-4.007,0.218-8.156,0.258-11.804,1.929c-3.649,1.671-6.667,5.529-5.91,9.47L266.818,154.782z"/>
	</g>
	<g>
		<g>
			<rect x="438.728" y="195.402" style="fill:#EBEBEB;" width="41.12" height="23.038"/>
		</g>
		<g>
			<rect x="442.855" y="199.474" style="fill:#E0E0E0;" width="33.052" height="6.467"/>
		</g>
		<g>
			<path style="fill:#EBEBEB;" d="M445.876,136.266c0,0.611,0,8.965,0,8.965l7.539,6.438v43.733h14.262v-43.733l6.813-6.641v-8.761
				H445.876z"/>
		</g>
		<g>
			<rect x="448.97" y="126.685" style="fill:#EBEBEB;" width="1.929" height="9.582"/>
		</g>
		<g>
			<rect x="453.113" y="131.271" style="fill:#EBEBEB;" width="1.929" height="9.582"/>
		</g>
		<g>
			<rect x="447.877" y="139.722" style="fill:#FAFAFA;" width="25.098" height="4.855"/>
		</g>
	</g>
</g>
<g id="Background_Simple" style="display:none;">
	<path style="display:inline;fill:#EBEBEB;" d="M425.205,126.935c-0.586-22.181-12.147-48.381-25.539-66.073
		c-14.063-18.578-41.719-24.953-65.003-24.084c-23.284,0.869-45.705,12.811-60.267,31c-20.075,25.075-26.074,60.961-51.479,80.618
		c-28.174,21.8-69.121,15.274-101.665,29.764c-32.047,14.269-52.822,50.474-48.971,85.342c3.851,34.867,32.026,65.667,66.414,72.599
		l67.459,8.282c9.865,1.211,19.805,1.792,29.742,1.532c37.51-0.982,57.456-10.5,81.094-22.312
		c33.972-16.975,47.871-35.684,57.163-47.287C417.947,221.63,426.618,180.388,425.205,126.935z"/>
</g>
<g id="Floor">
	<g>
		<g>
			<path style="fill:#263238;" d="M467.527,452.786c0,0.144-100.98,0.26-225.516,0.26c-124.58,0-225.538-0.117-225.538-0.26
				s100.958-0.26,225.538-0.26C366.547,452.526,467.527,452.642,467.527,452.786z"/>
		</g>
	</g>
</g>
<g id="Windows">
	<g>
		<rect x="110.851" y="17.398" style="fill:#455A64;" width="8.184" height="326.175"/>
		<rect x="386.973" y="21.094" style="fill:#455A64;" width="8.184" height="326.175"/>
		<rect x="17.692" y="339.665" style="fill:#455A64;" width="437.017" height="7.816"/>
		<g>
			<g>
				<g>
					<path style="fill:#263238;" d="M281.807,106.798c0.087,0.114-24.288,18.805-54.436,41.741
						c-30.158,22.944-54.669,41.445-54.756,41.331c-0.087-0.114,24.283-18.801,54.441-41.745
						C257.204,125.189,281.72,106.684,281.807,106.798z"/>
				</g>
			</g>
			<g>
				<g>
					<path style="fill:#263238;" d="M292.452,84.781c0.089,0.113-16.015,12.976-35.964,28.726
						c-19.956,15.756-36.201,28.433-36.29,28.32c-0.089-0.113,16.011-12.973,35.968-28.729
						C276.115,97.348,292.363,84.668,292.452,84.781z"/>
				</g>
			</g>
		</g>
		<g>
			<g>
				<g>
					<path style="fill:#263238;" d="M89.287,182.977c0.092,0.11-17.892,15.291-40.164,33.902
						c-22.28,18.618-40.41,33.616-40.502,33.506c-0.092-0.11,17.889-15.288,40.168-33.905
						C71.061,197.868,89.195,182.867,89.287,182.977z"/>
				</g>
			</g>
			<g>
				<g>
					<path style="fill:#263238;" d="M99.061,159.89c0.092,0.11-15.619,13.45-35.087,29.791
						c-19.475,16.347-35.333,29.505-35.426,29.395c-0.092-0.11,15.615-13.447,35.091-29.794
						C83.108,172.941,98.969,159.78,99.061,159.89z"/>
				</g>
			</g>
		</g>
		<g>
			<g>
				<g>
					<path style="fill:#263238;" d="M476.278,239.426c0.092,0.11-17.892,15.291-40.164,33.902
						c-22.28,18.618-40.41,33.616-40.502,33.506c-0.092-0.11,17.889-15.288,40.168-33.905
						C458.052,254.318,476.186,239.316,476.278,239.426z"/>
				</g>
			</g>
			<g>
				<g>
					<path style="fill:#263238;" d="M486.052,216.339c0.092,0.11-15.619,13.45-35.087,29.791
						c-19.475,16.347-35.333,29.505-35.426,29.395c-0.092-0.11,15.615-13.447,35.091-29.794
						C470.098,229.39,485.959,216.229,486.052,216.339z"/>
				</g>
			</g>
		</g>
	</g>
</g>
<g id="Paper_Bin">
	<g>
		<g>
			<g>
				<rect x="39.584" y="259.261" style="fill:#263238;" width="51.297" height="88.553"/>
			</g>
			<g>
				<path style="fill:#455A64;" d="M79.004,284.118H51.095c-2.196,0-3.976-1.78-3.976-3.976v-5.903c0-2.196,1.78-3.976,3.976-3.976
					h27.909c2.196,0,3.976,1.78,3.976,3.976v5.903C82.981,282.337,81.201,284.118,79.004,284.118z"/>
			</g>
		</g>
		<g>
			<g>
				<path style="fill:#455A64;" d="M91.235,293.382c0,0.144-11.484,0.26-25.647,0.26c-14.168,0-25.649-0.117-25.649-0.26
					s11.481-0.26,25.649-0.26C79.751,293.121,91.235,293.238,91.235,293.382z"/>
			</g>
		</g>
		<g>
			<g>
				<path style="fill:#455A64;" d="M91.235,336.265c0,0.144-11.484,0.26-25.647,0.26c-14.168,0-25.649-0.117-25.649-0.26
					s11.481-0.26,25.649-0.26C79.751,336.004,91.235,336.121,91.235,336.265z"/>
			</g>
		</g>
	</g>
</g>
<g id="Character">
	<g>
		<g>
			<g>
				<g>
					<g>
						<path style="fill:#263238;" d="M255.066,171.294c1.88-1.709,3.129-4.151,3.206-6.69c0.077-2.539-1.086-5.131-3.157-6.602
							c-2.071-1.472-5.018-1.689-7.189-0.369c-1.904,1.157-3.235,3.377-5.429,3.76c-2.046,0.357-4.38-1.012-6.108,0.14
							c-0.98,0.654-1.369,1.914-2.239,2.708c-1.118,1.02-2.784,1.083-4.186,1.652c-1.977,0.802-3.446,2.74-3.682,4.861
							c-0.253,2.266,0.791,4.446,1.666,6.551c0.875,2.105,1.604,4.506,0.745,6.618"/>
					</g>
				</g>
			</g>
			<g>
				<g>
					<g>
						<g>
							<g>
								<g>
									<g>
										<g>
											<g>
												<g>
													<g>
														<g>
															<path style="fill:#FFBE9D;" d="M231.704,212.927l-3.724-39.683l1.053-0.919c7.097-6.19,10.381-9.689,19.245-6.507
																l0,0c4.066,1.77,6.914,5.526,7.523,9.918c0.721,5.194,1.589,12.04,1.794,16.236c0.366,7.466-8.392,9.125-8.392,9.125
																l1.393,13.098L231.704,212.927z"/>
														</g>
													</g>
												</g>
											</g>
										</g>
									</g>
									<g>
										<g>
											<g>
												<g>
													<g>
														<g>
															<g>
																<path style="fill:#263238;" d="M252.584,180.373c-0.468-0.375-0.543-1.058-0.169-1.526
																	c0.375-0.468,1.058-0.543,1.526-0.169c0.468,0.375,0.543,1.058,0.169,1.526
																	C253.735,180.672,253.052,180.748,252.584,180.373z"/>
															</g>
														</g>
													</g>
												</g>
											</g>
										</g>
										<g>
											<g>
												<g>
													<g>
														<g>
															<g>
																<g>
																	<path style="fill:#263238;" d="M255.561,178.405c-0.109,0.136-0.876-0.383-1.904-0.324
																		c-1.029,0.043-1.741,0.635-1.863,0.51c-0.059-0.055,0.043-0.295,0.353-0.563c0.304-0.266,0.838-0.536,1.479-0.568
																		c0.641-0.032,1.198,0.185,1.527,0.42C255.489,178.115,255.614,178.344,255.561,178.405z"/>
																</g>
															</g>
														</g>
													</g>
												</g>
											</g>
										</g>
									</g>
									<g>
										<g>
											<g>
												<g>
													<g>
														<g>
															<g>
																<path style="fill:#263238;" d="M243.013,180.014c0.529,0.282,0.729,0.94,0.447,1.468
																	c-0.282,0.529-0.94,0.729-1.469,0.447s-0.729-0.94-0.447-1.469C241.827,179.932,242.484,179.732,243.013,180.014z"
																	/>
															</g>
														</g>
													</g>
												</g>
											</g>
										</g>
										<g>
											<g>
												<g>
													<g>
														<g>
															<g>
																<g>
																	<path style="fill:#263238;" d="M244.783,179.824c-0.109,0.136-0.876-0.382-1.904-0.324
																		c-1.029,0.043-1.741,0.635-1.863,0.51c-0.059-0.055,0.043-0.295,0.353-0.563c0.304-0.265,0.838-0.536,1.479-0.568
																		c0.641-0.031,1.198,0.185,1.527,0.42C244.711,179.535,244.837,179.764,244.783,179.824z"/>
																</g>
															</g>
														</g>
													</g>
												</g>
											</g>
										</g>
									</g>
									<g>
										<g>
											<g>
												<g>
													<g>
														<g>
															<g>
																<path style="fill:#263238;" d="M249.195,188.379c-0.012-0.08,0.616-0.247,1.64-0.454
																	c0.267-0.046,0.474-0.119,0.485-0.265c0.038-0.165-0.083-0.446-0.24-0.758c-0.306-0.663-0.616-1.335-0.941-2.038
																	c-1.305-2.906-2.243-5.314-2.095-5.381c0.148-0.066,1.325,2.235,2.63,5.141c0.31,0.71,0.606,1.388,0.898,2.057
																	c0.118,0.305,0.327,0.656,0.215,1.108c-0.061,0.227-0.262,0.4-0.437,0.458c-0.175,0.065-0.327,0.074-0.455,0.088
																	C249.856,188.436,249.207,188.459,249.195,188.379z"/>
															</g>
														</g>
													</g>
												</g>
											</g>
										</g>
									</g>
									<g>
										<g>
											<g>
												<g>
													<g>
														<g>
															<path style="fill:#EB996E;" d="M249.204,201.096c0,0-3.32,0.524-8.524-2.317c0,0,1.326,5.376,8.729,4.247
																L249.204,201.096z"/>
														</g>
													</g>
												</g>
											</g>
										</g>
									</g>
								</g>
							</g>
						</g>
					</g>
				</g>
				<g>
					<g>
						<g>
							<g>
								<g>
									<path style="fill:#263238;" d="M250.898,176.213c0.138,0.502,0.926,0.716,1.76,0.713c0.838-0.019,1.715-0.254,2.051-0.763
										c0.339-0.496-0.354-1.188-1.67-1.172C251.725,175.009,250.754,175.723,250.898,176.213z"/>
								</g>
							</g>
						</g>
					</g>
				</g>
				<g>
					<g>
						<g>
							<g>
								<g>
									<path style="fill:#263238;" d="M239.514,177.695c0.367,0.394,1.427,0.242,2.476,0.076c1.245-0.279,2.35-0.518,2.663-0.986
										c0.238-0.274,0.207-0.616-0.193-0.868c-0.389-0.252-1.164-0.379-2.107-0.212c-0.943,0.167-1.813,0.585-2.319,0.996
										C239.518,177.115,239.36,177.49,239.514,177.695z"/>
								</g>
							</g>
						</g>
					</g>
				</g>
				<g>
					<g>
						<g>
							<g>
								<g>
									<path style="fill:#263238;" d="M244.914,188.58c-0.165,0.028,0.136,1.272,1.364,2.107c1.221,0.848,2.49,0.683,2.457,0.519
										c0.006-0.181-1.067-0.301-2.104-1.032C245.577,189.469,245.08,188.51,244.914,188.58z"/>
								</g>
							</g>
						</g>
					</g>
				</g>
				<g>
					<g>
						<g>
							<path style="fill:#263238;" d="M255.069,171.295c-2.278,1.651-6.354,1.431-8.898,0.229c-1.798-0.85-3.483-2.421-5.451-2.132
								c-1.823,0.269-2.773,1.644-3.235,3.428c-0.428,1.655-2.347,3.186-4.664,2.606c0.288,3.643,0.822,6.339-0.257,9.703
								c-0.191,0.596-1.026,1.067-1.493,1.484c-0.467,0.416-1.218,0.576-1.721,0.204c-0.494-0.364-0.574-1.058-0.613-1.67
								c-0.226-3.611-0.966-7.469-1.192-11.081c-0.085-1.354,0.358-2.531,0.953-3.75c0.672-1.375,2.06-2.229,3.378-3.007
								c2.607-1.54,5.247-3.094,8.148-3.963c2.901-0.869,6.135-0.997,8.879,0.283c2.745,1.28,6.031,3.738,5.796,6.756"/>
						</g>
					</g>
				</g>
			</g>
			<g>
				<g>
					<g>
						<g>
							<g>
								<g>
									<g>
										<path style="fill:#FFBE9D;" d="M230.979,182.357c-0.128-0.057-5.354-0.886-4.775,4.235c0.5,4.427,5.289,3.318,5.295,3.17
											C231.504,189.613,230.979,182.357,230.979,182.357z"/>
									</g>
								</g>
							</g>
						</g>
					</g>
				</g>
				<g>
					<g>
						<g>
							<g>
								<g>
									<g>
										<g>
											<path style="fill:#EB996E;" d="M229.752,187.739c-0.02-0.014-0.075,0.055-0.202,0.117
												c-0.124,0.061-0.339,0.106-0.57,0.026c-0.467-0.158-0.874-0.882-0.915-1.67c-0.021-0.398,0.053-0.779,0.186-1.097
												c0.126-0.323,0.327-0.552,0.559-0.6c0.23-0.059,0.398,0.076,0.455,0.198c0.062,0.121,0.036,0.209,0.059,0.216
												c0.013,0.011,0.092-0.075,0.053-0.255c-0.02-0.086-0.074-0.188-0.179-0.27c-0.107-0.083-0.263-0.122-0.424-0.101
												c-0.337,0.032-0.633,0.35-0.779,0.698c-0.165,0.351-0.258,0.779-0.234,1.226c0.05,0.881,0.522,1.695,1.159,1.862
												c0.31,0.073,0.564-0.026,0.694-0.133C229.747,187.845,229.768,187.746,229.752,187.739z"/>
										</g>
									</g>
								</g>
							</g>
						</g>
					</g>
				</g>
			</g>
		</g>
		<g>
			<g>
				<g>
					<path style="fill:#E8505B;" d="M292.452,429.828l8.914,22.957l28.619-10.944c-1.213-2.67-18.118-2.497-18.118-2.497
						l-5.108-14.944L292.452,429.828z"/>
				</g>
				<g style="opacity:0.6;">
					<g>
						<path style="fill:#FFFFFF;" d="M302.544,441.489c-0.496,0.363-0.641,1.132-0.298,1.643c0.342,0.51,1.123,0.664,1.626,0.31
							c0.502-0.354,0.704-1.272,0.307-1.741s-1.324-0.599-1.727-0.135"/>
					</g>
				</g>
				<g style="opacity:0.6;">
					<path style="fill:#FFFFFF;" d="M301.366,452.786l-0.808-2.349l27.742-9.615c0,0,1.486,0.067,1.685,1.02L301.366,452.786z"/>
				</g>
				<g>
					<g>
						<path style="fill:#263238;" d="M312.276,439.022c0.049,0.142-0.626,0.472-1.141,1.185c-0.535,0.699-0.657,1.44-0.807,1.433
							c-0.139,0.022-0.25-0.893,0.389-1.744C311.348,439.038,312.257,438.882,312.276,439.022z"/>
					</g>
				</g>
				<g>
					<g>
						<path style="fill:#263238;" d="M315.752,439.116c0.084,0.123-0.431,0.592-0.679,1.365c-0.271,0.765-0.147,1.45-0.288,1.497
							c-0.123,0.072-0.533-0.709-0.205-1.664C314.899,439.356,315.698,438.983,315.752,439.116z"/>
					</g>
				</g>
				<g>
					<g>
						<path style="fill:#263238;" d="M318.831,442.056c-0.116,0.079-0.577-0.546-0.511-1.448c0.06-0.903,0.603-1.457,0.707-1.363
							c0.123,0.085-0.144,0.658-0.187,1.399C318.779,441.385,318.965,441.989,318.831,442.056z"/>
					</g>
				</g>
				<g>
					<g>
						<path style="fill:#263238;" d="M310.734,435.745c-0.01,0.15-0.725,0.202-1.494,0.558c-0.777,0.34-1.29,0.84-1.408,0.748
							c-0.12-0.07,0.283-0.817,1.195-1.223C309.935,435.415,310.761,435.609,310.734,435.745z"/>
					</g>
				</g>
				<g>
					<g>
						<path style="fill:#263238;" d="M308.754,432.61c0.024,0.057-0.496,0.355-1.436,0.541c-0.468,0.092-1.041,0.146-1.676,0.113
							c-0.317-0.017-0.65-0.056-0.99-0.122c-0.164-0.034-0.353-0.06-0.562-0.172c-0.211-0.087-0.44-0.423-0.348-0.719
							c0.063-0.276,0.285-0.47,0.49-0.554c0.208-0.087,0.396-0.11,0.566-0.131c0.348-0.045,0.688-0.053,1.008-0.035
							c0.642,0.04,1.206,0.184,1.653,0.362c0.899,0.361,1.325,0.796,1.288,0.842c-0.046,0.07-0.536-0.244-1.406-0.493
							c-0.434-0.124-0.964-0.22-1.554-0.231c-0.295-0.004-0.604,0.014-0.92,0.061c-0.334,0.036-0.592,0.133-0.619,0.297
							c-0.008,0.062-0.004,0.084,0.093,0.148c0.097,0.057,0.25,0.09,0.412,0.124c0.316,0.068,0.626,0.114,0.923,0.143
							c0.594,0.057,1.136,0.043,1.589,0.001C308.173,432.702,308.727,432.534,308.754,432.61z"/>
					</g>
				</g>
				<g>
					<g>
						<path style="fill:#263238;" d="M308.648,432.88c-0.041,0.04-0.51-0.354-0.907-1.24c-0.195-0.44-0.357-1.002-0.405-1.644
							c-0.022-0.321-0.015-0.661,0.032-1.01c0.06-0.347,0.119-0.804,0.637-1.073c0.279-0.119,0.599,0.012,0.752,0.171
							c0.169,0.157,0.251,0.316,0.348,0.469c0.18,0.314,0.299,0.644,0.37,0.965c0.143,0.644,0.087,1.246-0.046,1.715
							c-0.276,0.956-0.795,1.346-0.825,1.303c-0.074-0.052,0.311-0.508,0.466-1.385c0.077-0.432,0.087-0.967-0.062-1.52
							c-0.073-0.276-0.185-0.555-0.343-0.818c-0.161-0.287-0.369-0.489-0.471-0.414c-0.143,0.052-0.297,0.374-0.322,0.661
							c-0.049,0.313-0.065,0.62-0.058,0.913c0.018,0.586,0.13,1.111,0.269,1.536C308.367,432.364,308.716,432.83,308.648,432.88z"/>
					</g>
				</g>
			</g>
		</g>
		<g>
			<g>
				<path style="fill:#FFBE9D;" d="M195.386,417.109c-0.035-0.893,37.786-54.653,37.786-54.653l20.869,8.009l-47.61,54.859
					L195.386,417.109z"/>
			</g>
			<g>
				<g>
					<g>
						<path style="fill:#E8505B;" d="M195.386,417.109l-0.337,0.439l-6.484,8.466l-8.032,5.507l10.754,20.718l11.842,0.013
							c0,0-0.855-2.846-6.553-4.32l-0.374-11.372l10.229-11.236"/>
					</g>
					<g style="opacity:0.6;">
						<polygon style="fill:#FFFFFF;" points="180.533,431.522 191.287,452.24 203.13,452.253 201.797,450.471 192.168,449.932 
							182.242,430.35 						"/>
					</g>
				</g>
				<g>
					<g>
						<path style="fill:#263238;" d="M196.505,442.722c-0.088,0.121-0.77-0.268-1.686-0.242c-0.917-0.001-1.588,0.406-1.679,0.287
							c-0.111-0.09,0.557-0.799,1.672-0.808C195.927,441.939,196.614,442.63,196.505,442.722z"/>
					</g>
				</g>
				<g>
					<g>
						<path style="fill:#263238;" d="M196.316,439.901c-0.119,0.083-0.645-0.616-1.59-0.8c-0.943-0.195-1.699,0.247-1.776,0.124
							c-0.04-0.053,0.096-0.252,0.429-0.433c0.326-0.181,0.866-0.319,1.449-0.201c0.583,0.117,1.028,0.453,1.259,0.746
							C196.324,439.632,196.373,439.868,196.316,439.901z"/>
					</g>
				</g>
				<g>
					<g>
						<path style="fill:#263238;" d="M196.395,436.279c-0.13,0.065-0.533-0.619-1.358-0.905c-0.822-0.296-1.565-0.018-1.625-0.15
							c-0.032-0.059,0.118-0.225,0.446-0.347c0.322-0.123,0.833-0.177,1.352,0.006c0.519,0.184,0.882,0.547,1.055,0.845
							C196.444,436.03,196.457,436.252,196.395,436.279z"/>
					</g>
				</g>
				<g>
					<g>
						<path style="fill:#263238;" d="M199.567,433.472c-0.141,0.049-0.473-0.624-1.208-1.1c-0.721-0.498-1.471-0.548-1.479-0.697
							c-0.04-0.137,0.878-0.338,1.768,0.264C199.544,432.532,199.709,433.457,199.567,433.472z"/>
					</g>
				</g>
				<g>
					<g>
						<path style="fill:#263238;" d="M201.113,431.042c-0.06,0.039-0.45-0.437-1.033-1.24c-0.329-0.468-0.661-0.941-1-1.424
							c-0.171-0.278-0.41-0.519-0.549-0.957c-0.062-0.221-0.057-0.483,0.073-0.719c0.121-0.251,0.455-0.41,0.715-0.373
							c0.517,0.076,0.805,0.342,1.105,0.575c0.289,0.25,0.527,0.533,0.719,0.823c0.381,0.584,0.56,1.196,0.62,1.71
							c0.115,1.047-0.228,1.644-0.269,1.617c-0.092-0.02,0.103-0.625-0.094-1.558c-0.099-0.46-0.296-0.996-0.654-1.498
							c-0.18-0.249-0.395-0.49-0.65-0.701c-0.249-0.202-0.574-0.424-0.816-0.446c-0.117-0.005-0.174,0.026-0.224,0.108
							c-0.049,0.087-0.064,0.215-0.031,0.335c0.064,0.253,0.292,0.546,0.457,0.825c0.308,0.504,0.609,0.997,0.907,1.486
							C200.891,430.454,201.173,431.002,201.113,431.042z"/>
					</g>
				</g>
				<g>
					<g>
						<path style="fill:#263238;" d="M201.536,431.394c-0.056-0.004-0.01-0.626,0.632-1.338c0.624-0.673,1.992-1.392,3.51-0.631
							c0.108,0.093,0.194,0.261,0.184,0.423c-0.006,0.164-0.077,0.285-0.143,0.375c-0.14,0.184-0.295,0.275-0.425,0.373
							c-0.275,0.193-0.558,0.351-0.837,0.478c-0.559,0.256-1.101,0.384-1.558,0.434c-0.921,0.099-1.475-0.08-1.464-0.138
							c0.007-0.083,0.561-0.042,1.404-0.225c0.419-0.092,0.909-0.246,1.41-0.503c0.25-0.128,0.503-0.28,0.748-0.46
							c0.124-0.095,0.249-0.182,0.306-0.267c0.058-0.104,0.043-0.074,0.024-0.105c-0.038-0.044-0.197-0.093-0.343-0.128
							c-0.146-0.035-0.294-0.058-0.439-0.068c-0.292-0.022-0.577,0.002-0.842,0.06c-0.532,0.114-0.963,0.374-1.279,0.647
							C201.792,430.881,201.615,431.427,201.536,431.394z"/>
					</g>
				</g>
				<g style="opacity:0.6;">
					<circle style="fill:#FFFFFF;" cx="188.575" cy="431.168" r="1.405"/>
				</g>
			</g>
		</g>
		<g>
			<g>
				<g>
					<g>
						<g>
							<g>
								<g>
									<g>
										<g>
											<path style="fill:#FFBE9D;" d="M310.497,251.224h7.187c3.345-0.125,5.21-0.066,6.192-0.896
												c1.314-1.11-0.325-2.376-0.325-2.376s2.457-0.682,2.319-2.163c-0.094-1.01-1.228-1.191-1.228-1.191
												s2.173-0.701,2.646-1.561c0.645-1.173-0.816-1.906-0.816-1.906c3.003-1.612,2.845-3.392,2.187-3.609
												c-0.658-0.216-2.98,0.687-2.98,0.687c-1.94,0.431-7.238,1.708-5.138-1.047c2.1-2.755,2.676-5.663,2.285-6.559
												c-0.392-0.896-1.78-0.677-2.015,0.373c-0.19,0.849-0.944,2.164-1.551,3.129c-0.501,0.796-1.129,1.506-1.867,2.089
												c-0.862,0.678-1.617,1.22-2.272,1.664l-7.359,3.585L310.497,251.224z"/>
										</g>
									</g>
								</g>
							</g>
						</g>
					</g>
				</g>
			</g>
			<g>
				<g>
					<g>
						<g>
							<g>
								<g>
									<g>
										<polygon style="fill:#E0E0E0;" points="314.334,234.629 318.163,253.65 327.525,252.687 327.791,233.245 										"/>
									</g>
								</g>
							</g>
						</g>
						<g>
							<g>
								<g>
									<g>
										<path style="fill:#455A64;" d="M314.078,232.146c0,0-0.7,0.861-0.617,2.626l15.213-1.565c0,0,0.132-1.59-1.138-2.445
											L314.078,232.146z"/>
									</g>
								</g>
							</g>
						</g>
						<g>
							<g>
								<g>
									<g>
										<polygon style="fill:#455A64;" points="315.632,230.208 315.313,232.162 326.805,231.067 325.84,229.136 										"/>
									</g>
								</g>
							</g>
						</g>
						<g>
							<g>
								<g>
									<g>
										<path style="fill:#455A64;" d="M314.637,239.458c0.018,0.178,2.109,9.554,2.109,9.554l11.446-1.177l0.095-9.781
											L314.637,239.458z"/>
									</g>
								</g>
							</g>
						</g>
					</g>
				</g>
			</g>
			<g>
				<g>
					<g>
						<g>
							<path style="fill:#FFBE9D;" d="M332.186,237.73c0.277-0.166,0.3-0.591,0.114-0.855c-0.185-0.264-0.511-0.392-0.828-0.453
								c-1.32-0.255-2.626,0.408-3.807,1.05c-1.158,0.629-2.336,1.272-3.254,2.218c-0.264,0.272-0.521,0.65-0.382,1.003
								c0.112,0.285,0.44,0.42,0.742,0.473c0.701,0.123,1.446-0.034,2.038-0.428c-0.957,0.301-1.828,0.873-2.485,1.631
								c-0.234,0.27-0.453,0.609-0.387,0.961c0.079,0.423,0.559,0.672,0.988,0.646c0.429-0.026,0.817-0.255,1.185-0.477
								c-0.871,0.184-1.681,0.653-2.274,1.318c-0.168,0.188-0.326,0.41-0.329,0.662c-0.006,0.505,0.6,0.8,1.105,0.778
								c0.505-0.022,1-0.227,1.501-0.166c-1.024,0.045-2.01,0.629-2.542,1.505c-0.202,0.333-0.318,0.817-0.023,1.072
								c0.189,0.164,0.469,0.156,0.719,0.139c0.361-0.024,0.722-0.049,1.083-0.074c0.583-0.04,1.178-0.082,1.718-0.307
								c0.54-0.225,1.023-0.668,1.137-1.242c0.114-0.573-0.258-1.245-0.837-1.322c0.717-0.308,1.455-0.718,1.798-1.419
								s0.063-1.74-0.699-1.91c0.574-0.831,2.032-0.835,2.351-1.793c0.213-0.64-0.24-1.293-0.666-1.816
								c0.877-0.139,1.683-0.681,2.142-1.441"/>
						</g>
					</g>
				</g>
				<g>
					<g>
						<g>
							<g>
								<path style="fill:#EB996E;" d="M330.431,238.996c0.026,0.052-0.608,0.456-1.692,1.016c-0.544,0.275-1.205,0.587-1.974,0.855
									c-0.387,0.134-0.788,0.257-1.237,0.355c-0.229,0.043-0.475,0.07-0.742,0.025c-0.263-0.04-0.559-0.199-0.71-0.475
									c-0.292-0.564-0.014-1.17,0.337-1.491c0.36-0.338,0.744-0.519,1.081-0.731c0.654-0.381,1.268-0.739,1.841-1.073
									c1.055-0.6,1.724-0.944,1.757-0.891c0.033,0.053-0.578,0.493-1.59,1.163c-0.557,0.359-1.155,0.745-1.791,1.156
									c-0.335,0.22-0.716,0.422-0.989,0.691c-0.278,0.252-0.406,0.669-0.253,0.957c0.147,0.282,0.584,0.312,0.978,0.235
									c0.405-0.083,0.813-0.197,1.187-0.315c0.753-0.239,1.415-0.515,1.971-0.75C329.712,239.242,330.401,238.936,330.431,238.996
									z"/>
							</g>
						</g>
					</g>
				</g>
				<g>
					<g>
						<g>
							<g>
								<path style="fill:#EB996E;" d="M329.051,242.318c0.025,0.057-0.472,0.305-1.301,0.663c-0.478,0.198-0.965,0.399-1.466,0.606
									c-0.287,0.113-0.576,0.227-0.872,0.344c-0.299,0.097-0.682,0.24-1.115,0.104c-0.203-0.066-0.409-0.208-0.513-0.428
									c-0.104-0.217-0.094-0.447-0.038-0.639c0.125-0.4,0.407-0.629,0.621-0.829c0.452-0.407,0.904-0.719,1.3-0.949
									c0.796-0.458,1.349-0.598,1.369-0.546c0.027,0.063-0.474,0.306-1.197,0.814c-0.36,0.255-0.773,0.58-1.189,0.984
									c-0.21,0.202-0.419,0.413-0.48,0.645c-0.065,0.247,0.019,0.44,0.269,0.52c0.486,0.141,1.175-0.255,1.71-0.413
									c0.508-0.175,1.001-0.344,1.485-0.511C328.484,242.406,329.026,242.261,329.051,242.318z"/>
							</g>
						</g>
					</g>
				</g>
				<g>
					<g>
						<g>
							<g>
								<path style="fill:#EB996E;" d="M327.823,245.355c0.029,0.043-0.467,0.45-1.432,0.802c-0.484,0.171-1.069,0.328-1.764,0.378
									c-0.344,0.017-0.787-0.028-1.124-0.334c-0.163-0.146-0.3-0.353-0.333-0.605c-0.035-0.251,0.056-0.508,0.197-0.692
									c0.287-0.366,0.657-0.535,0.961-0.715c0.316-0.177,0.625-0.341,0.922-0.492c0.594-0.301,1.141-0.548,1.606-0.74
									c0.932-0.382,1.533-0.549,1.555-0.494c0.024,0.06-0.534,0.331-1.422,0.783c-0.444,0.226-0.97,0.499-1.545,0.817
									c-0.293,0.166-0.591,0.335-0.897,0.508c-0.31,0.183-0.633,0.356-0.819,0.601c-0.184,0.236-0.141,0.505,0.073,0.701
									c0.202,0.194,0.508,0.249,0.814,0.244c0.627-0.023,1.212-0.141,1.681-0.267
									C327.242,245.593,327.788,245.291,327.823,245.355z"/>
							</g>
						</g>
					</g>
				</g>
				<g>
					<g>
						<g>
							<g>
								<path style="fill:#EB996E;" d="M323.956,248.973c0.001,0.027-0.096,0.067-0.268,0.013c-0.164-0.055-0.397-0.223-0.491-0.55
									c-0.092-0.322,0.003-0.733,0.261-1.058c0.259-0.321,0.624-0.573,1.005-0.738c1.531-0.762,2.82-1.165,2.869-1.058
									c0.054,0.118-1.18,0.72-2.647,1.45c-0.385,0.166-0.694,0.38-0.906,0.61c-0.208,0.231-0.297,0.511-0.27,0.728
									C323.581,248.837,323.976,248.921,323.956,248.973z"/>
							</g>
						</g>
					</g>
				</g>
			</g>
		</g>
		<g>
			<g>
				<path style="fill:#FFBE9D;" d="M189.065,299.761l-0.336,2.407l-6.067,2.998c-1.41,0.432-2.316,1.803-2.161,3.269l0.402,3.798
					c0.149,1.409,1.141,2.586,2.505,2.971l9.195,2.598c0.923,0.261,1.88-0.286,2.124-1.213l0,0c0.213-0.81-0.19-1.656-0.954-2
					l-7.058-2.858l0,0c-0.194-1.262,0.576-2.472,1.801-2.831l6.465-1.892l0.812,4.985c0.147,0.904,0.913,1.63,1.828,1.608
					c0.469-0.011,0.869-0.224,0.925-0.889c0.143-1.711,0.764-11.173,0.764-11.173L189.065,299.761z"/>
			</g>
			<g>
				<g>
					<g>
						<path style="fill:#263238;" d="M160.156,446.452c0.751,2.641-0.781,5.392-3.422,6.143c-2.641,0.751-5.392-0.781-6.143-3.422
							c-0.751-2.641,0.781-5.392,3.422-6.143C156.654,442.279,159.404,443.81,160.156,446.452z"/>
					</g>
					<g>
						<polygon style="fill:#455A64;" points="156.398,447.704 158.583,441.095 156.875,440.301 154.818,447.17 						"/>
					</g>
					<g>
						<polygon style="fill:#263238;" points="174.115,367.56 186.33,316.382 190.109,317.692 178.411,368.349 						"/>
					</g>
					<g>
						<path style="fill:#E8505B;" d="M167.803,444.703l-27.561-6.934c-1.479-0.372-2.377-1.873-2.005-3.352l17.137-68.122
							c1.97-7.832,9.916-12.583,17.748-10.613l4.557,1.146c7.832,1.97,12.583,9.916,10.613,17.748l-17.138,68.122
							C170.783,444.178,169.283,445.076,167.803,444.703z"/>
					</g>
					<g>
						<polygon style="fill:#263238;" points="183.197,329.507 187.142,330.542 191.805,312.003 187.568,310.774 						"/>
					</g>
					<g>
						<g>
							<path style="fill:#263238;" d="M171.082,443.758c0,0,0.022-0.151,0.086-0.441c0.07-0.306,0.168-0.734,0.295-1.285
								c0.273-1.145,0.668-2.804,1.175-4.932c1.043-4.296,2.545-10.483,4.4-18.12c1.874-7.652,4.104-16.755,6.58-26.861
								c1.243-5.054,2.547-10.359,3.9-15.858c0.339-1.375,0.68-2.762,1.024-4.16c0.379-1.367,0.371-2.816,0.033-4.2
								c-0.707-2.77-3.013-5.109-5.875-5.8c-2.855-0.722-5.986,0.272-7.903,2.396c-0.944,1.067-1.627,2.346-1.928,3.733
								c-0.346,1.398-0.688,2.785-1.028,4.16c-1.361,5.498-2.674,10.802-3.925,15.855c-2.51,10.1-4.77,19.196-6.67,26.841
								c-1.911,7.624-3.459,13.799-4.533,18.086c-0.541,2.12-0.963,3.772-1.254,4.912c-0.145,0.547-0.257,0.971-0.337,1.275
								c-0.078,0.287-0.129,0.431-0.129,0.431s0.022-0.151,0.086-0.441c0.07-0.306,0.168-0.733,0.295-1.285
								c0.273-1.145,0.668-2.804,1.175-4.932c1.043-4.295,2.545-10.482,4.4-18.119c1.874-7.652,4.104-16.755,6.58-26.863
								c1.243-5.055,2.548-10.361,3.901-15.862c0.339-1.375,0.68-2.762,1.025-4.161c0.309-1.435,1.031-2.802,2.025-3.921
								c2.016-2.238,5.317-3.287,8.325-2.526c3.016,0.728,5.446,3.194,6.188,6.112c0.359,1.453,0.36,2.998-0.034,4.412
								c-0.346,1.398-0.688,2.785-1.028,4.159c-1.361,5.497-2.674,10.8-3.924,15.852c-2.509,10.098-4.77,19.194-6.67,26.839
								c-1.911,7.624-3.459,13.799-4.534,18.087c-0.541,2.12-0.963,3.772-1.254,4.913c-0.145,0.547-0.257,0.971-0.337,1.275
								C171.132,443.613,171.082,443.758,171.082,443.758z"/>
						</g>
					</g>
					<g>
						<g>
							<path style="fill:#263238;" d="M166.363,394.459c-0.034,0.193-3.829-0.75-8.476-2.105c-4.649-1.356-8.389-2.611-8.355-2.804
								c0.034-0.193,3.828,0.75,8.477,2.106C162.656,393.011,166.397,394.266,166.363,394.459z"/>
						</g>
					</g>
				</g>
			</g>
			<g>
				<g>
					<path style="fill:#EB996E;" d="M186.259,316.009c-0.022,0.061-0.774-0.102-1.924-0.596c-0.286-0.129-0.598-0.275-0.919-0.49
						c-0.158-0.115-0.327-0.227-0.474-0.446c-0.11-0.18-0.201-0.369-0.281-0.569c-0.32-0.809-0.404-1.723-0.545-2.645
						c-0.123-0.918-0.241-1.793-0.354-2.629c-0.049-0.4-0.111-0.805-0.063-1.206c0.033-0.205,0.05-0.378,0.189-0.589
						c0.122-0.167,0.251-0.278,0.376-0.381c1.019-0.776,1.798-0.961,1.817-0.897c0.032,0.067-0.681,0.378-1.575,1.174
						c-0.105,0.099-0.213,0.213-0.282,0.324c-0.052,0.071-0.085,0.26-0.095,0.41c-0.023,0.324,0.044,0.692,0.108,1.097
						c0.125,0.834,0.257,1.707,0.394,2.623c0.14,0.933,0.214,1.825,0.478,2.548c0.065,0.18,0.141,0.354,0.226,0.507
						c0.063,0.108,0.201,0.227,0.331,0.328c0.271,0.204,0.564,0.366,0.829,0.51C185.575,315.647,186.287,315.936,186.259,316.009z"
						/>
				</g>
			</g>
		</g>
		<g>
			<g>
				<path style="fill:none;stroke:#4E585D;stroke-width:0.05;stroke-miterlimit:10;" d="M209.015,283.438"/>
			</g>
		</g>
		<g>
			<g>
				<g>
					<g>
						<g>
							<g>
								<g>
									<g>
										<g>
											<path style="fill:#E8505B;" d="M223.902,293.44c-0.679-5.999-0.922-29.334-0.922-29.334
												c-0.846-10.871-1.257-22.732-1.903-30.628c-2.187-26.722,16.748-25.409,16.748-25.409l6.742,0.09
												c8.04,0.604,13.985,6.033,15.178,13.464l15.445,70.345L223.902,293.44z"/>
										</g>
									</g>
								</g>
							</g>
						</g>
					</g>
				</g>
			</g>
			<g>
				<path style="fill:#E8505B;" d="M229.757,210.696l-0.4-5.097c-0.1-1.28,0.939-2.36,2.221-2.311l18.15,0.707
					c1.147,0.045,2.055,0.984,2.061,2.132l0.031,5.923L229.757,210.696z"/>
			</g>
			<g>
				<g>
					<path style="fill:#E8505B;" d="M210.715,254.896l25.811-23.232c0,0,8.518-15.57-7.176-21.367c0,0,0.156-0.515-12.646,10.52
						c-7.725,6.659-15.491,13.421-20.434,17.737c-3.378,2.949-5.415,7.134-5.659,11.611l-2.683,49.396l17.273,2.998L210.715,254.896
						z"/>
				</g>
			</g>
			<g>
				<path style="fill:#E8505B;" d="M264.957,219.175l13.458,25.321l31.13-5.392l3.909,16.311l-36.312,9.45
					c-1.669,0.524-3.448,0.589-5.151,0.189l0,0c-3.302-0.775-5.964-3.21-7.03-6.43l-13.253-34.45
					c-1.207-3.138-3.724-9.589-1.246-11.861l-1.727-0.453C252.837,208.1,262.347,213.17,264.957,219.175z"/>
			</g>
			<g>
				<g>
					<path style="fill:#263238;" d="M276.06,255.189c-0.051,0.025-0.406-0.553-0.677-1.606c-0.275-1.046-0.393-2.582-0.039-4.213
						c0.361-1.63,1.112-2.975,1.799-3.81c0.687-0.842,1.251-1.218,1.287-1.175c0.059,0.063-0.406,0.53-0.991,1.393
						c-0.587,0.859-1.243,2.156-1.587,3.703c-0.336,1.549-0.282,3.001-0.109,4.027C275.913,254.537,276.141,255.156,276.06,255.189z
						"/>
				</g>
			</g>
			<g>
				<g>
					<path style="fill:#263238;" d="M210.715,255.122c-0.145,0.062-0.774-1.474-2.221-2.832c-1.426-1.38-2.991-1.934-2.936-2.083
						c0.012-0.132,1.761,0.229,3.295,1.706C210.401,253.373,210.846,255.103,210.715,255.122z"/>
				</g>
			</g>
			<g>
				<g>
					<path style="fill:#FAFAFA;" d="M269.415,226.17c0,0.144-13.101,0.26-29.258,0.26c-16.162,0-29.26-0.117-29.26-0.26
						s13.098-0.26,29.26-0.26C256.315,225.909,269.415,226.026,269.415,226.17z"/>
				</g>
			</g>
			<g>
				<polygon style="fill:#FAFAFA;" points="214.855,222.413 267.13,222.413 257.796,217.241 249.41,221.924 238.834,216.784 
					229.35,221.695 221.951,216.322 				"/>
			</g>
			<g>
				<g>
					<path style="fill:#FAFAFA;" d="M275.216,238.87c0,0.144-17.674,0.26-39.471,0.26c-21.805,0-39.475-0.117-39.475-0.26
						c0-0.144,17.67-0.26,39.475-0.26C257.542,238.61,275.216,238.727,275.216,238.87z"/>
				</g>
			</g>
			<g>
				<polygon style="fill:#FAFAFA;" points="211.638,235.114 265.622,235.114 256.287,229.942 247.901,234.625 237.326,229.485 
					227.842,234.396 219.735,229.485 				"/>
			</g>
			<g>
				<polygon style="fill:#FAFAFA;" points="270.437,229.485 265.622,235.114 273.429,235.114 				"/>
			</g>
			<g>
				<polygon style="fill:#FAFAFA;" points="211.857,235.114 206.887,229.311 200.216,235.114 				"/>
			</g>
			<g>
				<g>
					<path style="fill:#263238;" d="M234.714,234.482c0.023,0.027-0.283,0.333-0.856,0.864c-0.662,0.594-1.485,1.333-2.461,2.209
						c-2.093,1.848-5.009,4.374-8.249,7.14c-3.242,2.766-6.195,5.248-8.349,7.024c-1.018,0.826-1.877,1.522-2.567,2.082
						c-0.613,0.483-0.963,0.736-0.986,0.708c-0.023-0.028,0.284-0.335,0.858-0.865c0.662-0.594,1.486-1.333,2.462-2.21
						c2.093-1.848,5.007-4.374,8.247-7.139c3.239-2.764,6.19-5.244,8.344-7.02c1.018-0.826,1.878-1.523,2.568-2.083
						C234.34,234.709,234.69,234.455,234.714,234.482z"/>
				</g>
			</g>
			<g>
				<g>
					<path style="fill:#455A64;" d="M253.263,210.294l-30.676,72.089l0.92,8.51l34.288-78.843
						C257.796,212.05,256.275,209.649,253.263,210.294z"/>
				</g>
				<g>
					<path style="fill:#455A64;" d="M224.472,282.384h-3.814c-3.031,0-5.54,2.357-5.729,5.382l-1.926,30.828
						c-0.215,3.436,2.623,6.286,6.059,6.088l0,0c3.036-0.175,5.409-2.689,5.409-5.73V282.384z"/>
				</g>
				<g>
					<g>
						<path style="fill:#263238;" d="M226.535,284.028c0.047,0.035-0.434,0.939-1.157,2.448c-0.368,0.751-0.797,1.646-1.312,2.634
							c-0.252,0.496-0.595,1.039-1.118,1.442c-0.493,0.418-1.358,0.637-2.023,0.218c-0.646-0.395-0.976-1.073-1.059-1.732
							c-0.071-0.667,0.095-1.277,0.288-1.811c0.421-1.056,0.86-1.929,1.209-2.696c0.711-1.515,1.184-2.437,1.25-2.408
							c0.066,0.029-0.288,1.003-0.913,2.555c-0.301,0.774-0.72,1.702-1.094,2.71c-0.171,0.503-0.299,1.052-0.234,1.59
							c0.066,0.521,0.356,1.071,0.816,1.343c0.458,0.282,1.028,0.159,1.451-0.175c0.439-0.332,0.749-0.786,1.006-1.265
							c0.507-0.928,0.979-1.791,1.407-2.575C225.858,284.838,226.464,283.978,226.535,284.028z"/>
					</g>
				</g>
				<g>
					<g>
						<path style="fill:#263238;" d="M221.682,290.446c0.036,0,0.064,0.497,0.084,1.395c0.01,0.998,0.022,2.273,0.037,3.801
							c0.008,3.209-0.017,7.642-0.076,12.537c-0.037,2.443-0.072,4.77-0.104,6.902c-0.025,2.109-0.079,4.078-0.622,5.639
							c-0.521,1.569-1.454,2.613-2.206,3.126c-0.376,0.262-0.704,0.408-0.929,0.489c-0.228,0.075-0.352,0.098-0.357,0.082
							c-0.02-0.048,0.473-0.184,1.164-0.733c0.683-0.54,1.524-1.568,1.977-3.075c0.476-1.507,0.495-3.413,0.493-5.533
							c0.02-2.133,0.041-4.46,0.063-6.903c0.06-4.895,0.143-9.327,0.229-12.535c0.052-1.527,0.095-2.802,0.129-3.799
							C221.606,290.942,221.646,290.446,221.682,290.446z"/>
					</g>
				</g>
				<g>
					<path style="fill:#263238;" d="M223.258,287.8c0,0.52-0.422,0.942-0.942,0.942c-0.52,0-0.942-0.422-0.942-0.942
						s0.422-0.942,0.942-0.942C222.836,286.858,223.258,287.28,223.258,287.8z"/>
				</g>
			</g>
			<g>
				<g>
					<path style="fill:#263238;" d="M272.009,277.48c-0.017,0.004-0.078-0.171-0.177-0.508c-0.109-0.395-0.244-0.885-0.409-1.481
						c-0.345-1.289-0.817-3.161-1.376-5.479c-1.122-4.636-2.57-11.065-4.07-18.186c-1.501-7.123-2.789-13.584-3.699-18.266
						c-0.433-2.287-0.789-4.164-1.051-5.549c-0.105-0.609-0.191-1.11-0.26-1.514c-0.054-0.347-0.074-0.531-0.056-0.535
						c0.018-0.004,0.072,0.173,0.159,0.514c0.095,0.399,0.213,0.893,0.356,1.494c0.303,1.377,0.713,3.243,1.213,5.516
						c0.999,4.733,2.352,11.145,3.848,18.232c1.5,7.118,2.89,13.555,3.92,18.21c0.5,2.273,0.911,4.138,1.214,5.515
						c0.126,0.605,0.23,1.102,0.313,1.504C272,277.293,272.026,277.476,272.009,277.48z"/>
				</g>
			</g>
			<g>
				<g>
					<path style="fill:#263238;" d="M251.819,210.385c0,0.144-4.947,0.26-11.047,0.26c-6.103,0-11.048-0.117-11.048-0.26
						c0-0.144,4.945-0.26,11.048-0.26C246.873,210.124,251.819,210.241,251.819,210.385z"/>
				</g>
			</g>
			<g>
				<g>
					<path style="fill:#263238;" d="M233.435,210.294c-0.144,0-0.26-1.529-0.26-3.414c0-1.886,0.117-3.414,0.26-3.414
						c0.144,0,0.26,1.528,0.26,3.414C233.695,208.766,233.578,210.294,233.435,210.294z"/>
				</g>
			</g>
			<g>
				<g>
					<path style="fill:#263238;" d="M238.402,210.294c-0.144,0-0.26-1.496-0.26-3.341c0-1.845,0.117-3.341,0.26-3.341
						c0.144,0,0.26,1.496,0.26,3.341C238.662,208.798,238.545,210.294,238.402,210.294z"/>
				</g>
			</g>
			<g>
				<g>
					<path style="fill:#263238;" d="M242.793,210.15c-0.144,0-0.26-1.438-0.26-3.212c0-1.775,0.117-3.213,0.26-3.213
						s0.26,1.438,0.26,3.213C243.054,208.712,242.937,210.15,242.793,210.15z"/>
				</g>
			</g>
			<g>
				<g>
					<path style="fill:#263238;" d="M248.043,210.479c-0.144,0-0.26-1.466-0.26-3.274c0-1.809,0.117-3.275,0.26-3.275
						s0.26,1.466,0.26,3.275C248.304,209.012,248.187,210.479,248.043,210.479z"/>
				</g>
			</g>
		</g>
		<g>
			<g>
				<polygon style="fill:#263238;" points="247.132,292.361 291.762,436.321 311.249,427.278 274.903,290.893 				"/>
			</g>
			<g>
				<path style="fill:#263238;" d="M223.902,293.44l2.32,74.954l-36.242,50.53l19.615,12.598l43.057-52.193
					c2.16-2.619,3.335-5.911,3.319-9.306l-0.367-78.056L223.902,293.44z"/>
			</g>
			<g>
				<g>
					<path style="fill:#455A64;" d="M235.781,292.888c0.032-0.009,0.138,0.215,0.272,0.643c0.135,0.427,0.281,1.063,0.359,1.866
						c0.172,1.596-0.083,3.901-1.167,6.126c-1.066,2.245-2.725,3.854-4.054,4.742c-1.337,0.905-2.306,1.185-2.323,1.134
						c-0.039-0.081,0.866-0.479,2.107-1.432c1.237-0.939,2.78-2.521,3.8-4.668c1.042-2.144,1.341-4.326,1.27-5.879
						C235.983,293.859,235.692,292.911,235.781,292.888z"/>
				</g>
			</g>
			<g>
				<g>
					<path style="fill:#455A64;" d="M276.27,301.561c-0.021,0.054-0.716-0.131-1.723-0.7c-1.005-0.564-2.289-1.567-3.369-2.975
						c-1.076-1.412-1.708-2.914-1.989-4.031c-0.286-1.121-0.282-1.84-0.225-1.846c0.163-0.049,0.509,2.839,2.627,5.56
						C273.662,300.326,276.359,301.418,276.27,301.561z"/>
				</g>
			</g>
			<g>
				<g>
					<path style="fill:#455A64;" d="M244.686,292.692c0.009,0,0.025,0.127,0.047,0.376c0.021,0.275,0.049,0.641,0.085,1.105
						c0.065,1.002,0.157,2.429,0.275,4.253c0.223,3.694,0.539,9.04,0.828,15.653c0.29,6.612,0.528,14.493,0.475,23.247
						c-0.025,4.377-0.137,8.971-0.333,13.73c-0.197,4.744-0.396,9.737-1.779,14.653c-1.353,4.952-4.202,9.156-7.044,12.953
						c-2.877,3.8-5.685,7.431-8.367,10.889c-5.367,6.912-10.268,13.084-14.413,18.242c-4.147,5.157-7.542,9.299-9.903,12.148
						c-1.172,1.402-2.089,2.499-2.733,3.269c-0.304,0.354-0.542,0.632-0.722,0.841c-0.165,0.188-0.253,0.281-0.26,0.275
						c-0.007-0.006,0.067-0.11,0.219-0.309c0.17-0.217,0.395-0.506,0.682-0.874c0.626-0.785,1.518-1.903,2.658-3.331
						c2.326-2.916,5.66-7.095,9.772-12.25c4.108-5.186,8.977-11.38,14.322-18.306c2.658-3.475,5.447-7.121,8.338-10.901
						c2.829-3.792,5.627-7.934,6.952-12.79c1.361-4.834,1.567-9.79,1.77-14.532c0.202-4.753,0.324-9.341,0.363-13.712
						c0.079-8.743-0.12-16.618-0.363-23.229c-0.279-6.588-0.505-11.93-0.663-15.657c-0.076-1.826-0.135-3.254-0.177-4.258
						c-0.014-0.466-0.025-0.833-0.033-1.108C244.675,292.821,244.677,292.693,244.686,292.692z"/>
				</g>
			</g>
			<g>
				<g>
					<path style="fill:#455A64;" d="M302.059,430.375c-0.139,0.038-8.828-31.033-19.405-69.39
						c-10.581-38.371-19.043-69.497-18.905-69.535c0.139-0.038,8.826,31.026,19.406,69.397
						C293.733,399.204,302.197,430.337,302.059,430.375z"/>
				</g>
			</g>
		</g>
	</g>
</g>
<g id="Plants">
	<g>
		<g>
			<rect x="403.333" y="300.379" style="fill:#263238;" width="55.553" height="7.633"/>
			<path style="fill:#263238;" d="M458.981,308.107h-55.742v-7.823h55.742V308.107z M403.428,307.917h55.362v-7.443h-55.362V307.917
				z"/>
		</g>
		<g>
			<polygon style="fill:#263238;" points="408.484,305.471 416.48,344.92 446.067,344.92 453.797,308.012 			"/>
		</g>
		<g>
			<polygon style="fill:#263238;" points="408.484,341.189 412.748,347.052 448.711,347.052 453.797,341.189 			"/>
		</g>
		<g>
			<g>
				<path style="fill:#263238;" d="M429.023,306.624c-0.109,0-0.249-18.275-0.313-40.815c-0.063-22.547-0.026-40.819,0.083-40.82
					c0.109,0,0.249,18.271,0.313,40.818C429.17,288.347,429.133,306.623,429.023,306.624z"/>
			</g>
		</g>
		<g>
			<g>
				<path style="fill:#263238;" d="M441.398,260.889c0.012,0.006-0.04,0.152-0.149,0.425c-0.13,0.31-0.294,0.702-0.496,1.183
					c-0.111,0.26-0.232,0.544-0.362,0.852c-0.115,0.322-0.238,0.668-0.37,1.037c-0.134,0.374-0.277,0.771-0.428,1.19
					c-0.148,0.422-0.265,0.882-0.411,1.357c-0.607,1.894-1.089,4.217-1.554,6.802c-0.404,2.598-0.708,5.474-0.86,8.506
					c-0.27,6.07,0.073,11.573,0.439,15.537c0.179,1.984,0.358,3.586,0.49,4.693c0.057,0.519,0.103,0.941,0.14,1.276
					c0.028,0.292,0.036,0.447,0.022,0.449c-0.014,0.002-0.048-0.149-0.101-0.438c-0.056-0.332-0.127-0.752-0.214-1.267
					c-0.179-1.101-0.402-2.701-0.616-4.686c-0.439-3.965-0.827-9.486-0.556-15.584c0.153-3.046,0.469-5.938,0.896-8.547
					c0.487-2.597,1.001-4.928,1.646-6.824c0.155-0.475,0.281-0.935,0.44-1.356c0.162-0.418,0.315-0.814,0.459-1.187
					c0.143-0.367,0.277-0.711,0.402-1.031c0.137-0.311,0.277-0.589,0.396-0.842c0.23-0.47,0.417-0.853,0.565-1.156
					C441.31,261.017,441.386,260.883,441.398,260.889z"/>
			</g>
		</g>
		<g>
			<g>
				<path style="fill:#263238;" d="M439.978,246.108c0.013,0.005-0.048,0.212-0.177,0.603c-0.144,0.423-0.336,0.989-0.578,1.699
					c-0.129,0.372-0.271,0.78-0.425,1.225c-0.138,0.456-0.287,0.949-0.447,1.476c-0.325,1.057-0.702,2.259-1.036,3.611
					c-0.178,0.674-0.364,1.379-0.557,2.113c-0.167,0.742-0.341,1.513-0.521,2.311c-0.388,1.59-0.668,3.319-1.026,5.124
					c-0.612,3.63-1.152,7.643-1.523,11.875c-0.351,4.236-0.504,8.284-0.558,11.966c-0.011,3.682,0.036,7,0.187,9.783
					c0.049,1.392,0.138,2.649,0.21,3.754c0.064,1.105,0.133,2.056,0.204,2.832c0.057,0.749,0.102,1.345,0.136,1.79
					c0.027,0.41,0.034,0.626,0.021,0.627c-0.014,0.001-0.048-0.212-0.1-0.619c-0.052-0.444-0.122-1.038-0.21-1.784
					c-0.094-0.775-0.186-1.725-0.271-2.83c-0.093-1.104-0.202-2.362-0.269-3.756c-0.187-2.785-0.263-6.109-0.272-9.8
					c0.034-3.691,0.176-7.749,0.528-11.997c0.373-4.244,0.925-8.268,1.559-11.905c0.369-1.809,0.662-3.54,1.065-5.132
					c0.188-0.798,0.37-1.57,0.544-2.313c0.203-0.734,0.397-1.439,0.584-2.113c0.353-1.351,0.75-2.551,1.095-3.605
					c0.171-0.525,0.331-1.015,0.479-1.469c0.166-0.441,0.319-0.847,0.458-1.216c0.271-0.701,0.487-1.259,0.649-1.676
					C439.879,246.301,439.965,246.103,439.978,246.108z"/>
			</g>
		</g>
		<g>
			<g>
				<path style="fill:#263238;" d="M425.51,309.857c-0.007,0-0.017-0.072-0.031-0.214c-0.014-0.164-0.031-0.371-0.052-0.629
					c-0.039-0.582-0.094-1.392-0.163-2.42c-0.133-2.132-0.323-5.166-0.557-8.902c-0.482-7.515-1.18-17.897-2.444-29.315
					c-0.646-5.709-1.396-11.13-2.174-16.045c-0.414-2.454-0.79-4.788-1.216-6.96c-0.391-2.179-0.812-4.196-1.199-6.038
					c-0.365-1.847-0.772-3.5-1.1-4.959c-0.322-1.46-0.633-2.71-0.893-3.73c-0.245-1.001-0.438-1.788-0.577-2.355
					c-0.058-0.252-0.104-0.455-0.141-0.615c-0.03-0.139-0.041-0.211-0.035-0.213c0.007-0.002,0.031,0.067,0.074,0.202
					c0.047,0.158,0.105,0.357,0.178,0.605c0.156,0.562,0.373,1.344,0.649,2.337c0.283,1.015,0.617,2.26,0.959,3.717
					c0.348,1.455,0.775,3.106,1.158,4.951c0.405,1.84,0.843,3.857,1.248,6.036c0.441,2.172,0.829,4.508,1.254,6.963
					c0.8,4.919,1.561,10.346,2.208,16.06c1.266,11.429,1.919,21.821,2.33,29.342c0.204,3.761,0.346,6.806,0.432,8.911
					c0.038,1.03,0.068,1.841,0.089,2.424c0.005,0.259,0.01,0.466,0.013,0.631C425.519,309.783,425.516,309.856,425.51,309.857z"/>
			</g>
		</g>
		<g>
			<path style="fill:#E8505B;" d="M428.57,233.775c-0.241-2.589-2.858-4.542-5.458-4.569c-2.6-0.027-5.024,1.533-6.614,3.59
				c-1.59,2.057-2.467,4.569-3.185,7.069c-1.751,6.1-2.708,12.508-1.96,18.81c0.749,6.302,3.306,12.506,7.827,16.958
				c0.735,0.724,1.688,1.448,2.697,1.233c0.552-0.118,1.004-0.501,1.423-0.879c8.883-8.025,14.013-20.044,13.661-32.01
				c-0.07-2.396-0.385-4.89-1.712-6.887C433.923,235.094,430.829,232.973,428.57,233.775"/>
		</g>
		<g>
			<g>
				<path style="fill:#E8505B;" d="M409.154,213.037c-1.221,2.211-2.442,4.422-3.662,6.632c-0.085,0.155-0.198,0.328-0.374,0.342
					c-0.192,0.016-0.336-0.166-0.442-0.328c-3.227-4.953-6.455-9.906-9.682-14.86l2.231-1.264L409.154,213.037z"/>
			</g>
			<g style="opacity:0.2;">
				<g>
					<path d="M409.154,213.037c-1.221,2.211-2.442,4.422-3.662,6.632c-0.085,0.155-0.198,0.328-0.374,0.342
						c-0.192,0.016-0.336-0.166-0.442-0.328c-3.227-4.953-6.455-9.906-9.682-14.86l2.231-1.264L409.154,213.037z"/>
				</g>
			</g>
			<g>
				<path style="fill:#E8505B;" d="M428.794,224.989c-11.009-6.496-22.019-12.993-33.028-19.489
					c-0.337-0.199-0.702-0.434-0.804-0.811c-0.132-0.489,0.235-0.96,0.588-1.323c4.542-4.686,11.141-7.403,17.65-6.934
					c6.51,0.468,12.77,4.229,15.957,9.924C432.344,212.05,432.449,219.582,428.794,224.989"/>
			</g>
			<g>
				<g>
					<path style="fill:#263238;" d="M400.526,199.278c-0.001-0.014,0.148-0.032,0.433-0.054c0.285-0.014,0.705-0.066,1.248-0.06
						c1.085-0.027,2.663,0.045,4.583,0.364c1.919,0.315,4.172,0.932,6.526,1.982c2.353,1.045,4.788,2.558,7.005,4.545
						c2.2,2.009,3.948,4.282,5.223,6.519c1.28,2.238,2.118,4.419,2.623,6.297c0.509,1.878,0.737,3.441,0.819,4.523
						c0.06,0.54,0.051,0.963,0.065,1.248c0.006,0.285,0.003,0.435-0.011,0.436c-0.035,0.002-0.076-0.596-0.207-1.667
						c-0.128-1.071-0.397-2.614-0.935-4.463c-1.044-3.678-3.469-8.638-7.842-12.599c-4.376-3.955-9.552-5.873-13.316-6.546
						c-1.893-0.351-3.456-0.465-4.534-0.485C401.127,199.295,400.527,199.314,400.526,199.278z"/>
				</g>
			</g>
			<g>
				<g>
					<path style="fill:#263238;" d="M424.323,211.537c0.019,0.05-0.617,0.344-1.67,0.759c-1.052,0.415-2.523,0.945-4.167,1.467
						c-1.646,0.522-3.152,0.938-4.251,1.206c-1.099,0.269-1.788,0.395-1.802,0.343c-0.014-0.054,0.649-0.276,1.726-0.613
						c1.217-0.38,2.637-0.824,4.207-1.314c1.564-0.505,2.979-0.962,4.193-1.354C423.633,211.686,424.303,211.485,424.323,211.537z"
						/>
				</g>
			</g>
			<g>
				<g>
					<path style="fill:#263238;" d="M419.122,197.567c0.106-0.01,0.34,1.637,0.391,3.684c0.053,2.048-0.097,3.704-0.204,3.7
						c-0.112-0.004-0.139-1.656-0.192-3.69C419.067,199.228,419.011,197.576,419.122,197.567z"/>
				</g>
			</g>
			<g>
				<g>
					<path style="fill:#263238;" d="M395.477,205.13c-0.015-0.05,0.898-0.382,2.399-0.844c1.501-0.463,3.59-1.048,5.92-1.61
						c2.33-0.561,4.458-0.991,6.004-1.263c1.547-0.272,2.511-0.393,2.52-0.341c0.01,0.056-0.936,0.274-2.466,0.615
						c-1.53,0.341-3.642,0.814-5.966,1.373c-2.323,0.56-4.419,1.102-5.936,1.495C396.435,204.948,395.494,205.184,395.477,205.13z"
						/>
				</g>
			</g>
		</g>
		<g>
			<g>
				<path style="fill:#E8505B;" d="M413.565,227.647c-2.84-2.154-5.844-2.578-9.406-2.437c-3.562,0.141-7.029,1.226-10.295,2.657
					c-5.569,2.439-10.804,6.035-14.132,11.123c-3.328,5.089-4.486,11.825-1.994,17.371c0.248,0.553,0.571,1.13,1.128,1.369
					c0.586,0.251,1.258,0.055,1.864-0.143c6.334-2.067,12.713-4.152,18.538-7.388c5.824-3.236,11.126-7.734,14.251-13.618
					c0.75-1.412,1.378-2.925,1.5-4.519S414.7,228.773,413.565,227.647"/>
			</g>
			<g>
				<g>
					<path style="fill:#263238;" d="M413.621,226.979c0.004,0.013-0.154,0.077-0.456,0.185c-0.343,0.118-0.783,0.269-1.327,0.456
						c-0.293,0.098-0.614,0.205-0.961,0.32c-0.348,0.125-0.72,0.282-1.123,0.437c-0.801,0.324-1.732,0.648-2.711,1.124
						c-0.496,0.226-1.014,0.462-1.553,0.707c-0.539,0.249-1.076,0.555-1.646,0.844c-1.148,0.564-2.31,1.285-3.547,2.015
						c-2.428,1.535-4.998,3.383-7.5,5.562c-2.48,2.204-4.641,4.519-6.474,6.732c-0.882,1.134-1.745,2.195-2.451,3.262
						c-0.36,0.528-0.732,1.022-1.047,1.525c-0.312,0.503-0.612,0.987-0.899,1.451c-0.596,0.911-1.036,1.793-1.46,2.546
						c-0.206,0.38-0.408,0.728-0.577,1.058c-0.159,0.33-0.306,0.634-0.44,0.912c-0.255,0.516-0.461,0.933-0.622,1.258
						c-0.146,0.286-0.229,0.434-0.242,0.428c-0.013-0.005,0.046-0.164,0.169-0.46c0.143-0.333,0.328-0.762,0.555-1.292
						c0.125-0.284,0.262-0.594,0.411-0.93c0.159-0.336,0.352-0.691,0.55-1.077c0.407-0.766,0.831-1.662,1.415-2.587
						c0.282-0.47,0.576-0.961,0.883-1.472c0.31-0.51,0.678-1.011,1.034-1.546c0.699-1.082,1.557-2.156,2.437-3.304
						c1.829-2.241,3.997-4.58,6.496-6.8c2.519-2.194,5.115-4.047,7.57-5.575c1.251-0.727,2.426-1.441,3.588-1.996
						c0.576-0.285,1.12-0.586,1.665-0.829c0.546-0.239,1.07-0.468,1.572-0.688c0.992-0.461,1.934-0.769,2.746-1.075
						c0.408-0.146,0.785-0.293,1.138-0.408c0.353-0.104,0.678-0.201,0.975-0.289c0.555-0.159,1.003-0.287,1.352-0.386
						C413.453,227.003,413.617,226.965,413.621,226.979z"/>
				</g>
			</g>
			<g>
				<g>
					<path style="fill:#263238;" d="M391.429,238.995c0.031,0.105-3.063,1.102-6.91,2.226c-3.848,1.125-6.991,1.952-7.021,1.847
						c-0.031-0.105,3.063-1.102,6.91-2.227C388.254,239.717,391.398,238.89,391.429,238.995z"/>
				</g>
			</g>
			<g>
				<g>
					<path style="fill:#263238;" d="M391.145,254.243c-0.053,0.001-0.116-0.822-0.152-2.153c-0.037-1.331-0.042-3.171,0.014-5.202
						c0.057-2.032,0.166-3.869,0.276-5.196c0.111-1.327,0.219-2.145,0.272-2.141c0.056,0.004,0.046,0.827,0.007,2.156
						c-0.045,1.458-0.1,3.231-0.16,5.191c-0.049,1.96-0.094,3.732-0.13,5.191C391.237,253.419,391.2,254.242,391.145,254.243z"/>
				</g>
			</g>
			<g>
				<g>
					<path style="fill:#263238;" d="M404.206,247.589c-0.109,0.007-0.456-3.731-0.776-8.35c-0.32-4.62-0.49-8.37-0.381-8.378
						c0.109-0.008,0.456,3.73,0.776,8.351C404.145,243.83,404.315,247.581,404.206,247.589z"/>
				</g>
			</g>
			<g>
				<g>
					<path style="fill:#263238;" d="M387.947,230.498c0.003-0.055,0.849-0.076,2.215-0.067c1.366,0.009,3.251,0.049,5.332,0.118
						c2.082,0.069,3.966,0.153,5.329,0.234c1.363,0.081,2.206,0.158,2.205,0.213c-0.001,0.055-0.846,0.076-2.211,0.067
						c-1.366-0.009-3.252-0.049-5.336-0.118c-2.083-0.069-3.968-0.154-5.331-0.234C388.786,230.63,387.945,230.552,387.947,230.498z
						"/>
				</g>
			</g>
		</g>
		<g>
			<g>
				<path style="fill:#263238;" d="M420.598,277.412c-0.014,0-0.029-0.155-0.047-0.451c-0.015-0.34-0.035-0.769-0.058-1.298
					c-0.05-1.127-0.061-2.76-0.019-4.777c0.036-2.017,0.17-4.418,0.408-7.076c0.257-2.656,0.629-5.568,1.163-8.602
					c0.547-3.032,1.204-5.895,1.88-8.477c0.695-2.577,1.398-4.876,2.061-6.782c0.657-1.908,1.231-3.436,1.667-4.477
					c0.205-0.488,0.371-0.884,0.503-1.198c0.119-0.272,0.188-0.412,0.2-0.407c0.013,0.005-0.031,0.155-0.126,0.437
					c-0.113,0.32-0.257,0.725-0.433,1.223c-0.391,1.056-0.924,2.596-1.545,4.51c-0.627,1.912-1.3,4.213-1.974,6.786
					c-0.654,2.578-1.297,5.432-1.843,8.454c-0.531,3.023-0.913,5.923-1.189,8.568c-0.257,2.647-0.419,5.038-0.491,7.049
					c-0.078,2.011-0.109,3.641-0.107,4.767c-0.007,0.528-0.012,0.958-0.016,1.297C420.622,277.255,420.611,277.411,420.598,277.412z
					"/>
			</g>
		</g>
		<g>
			<g>
				<path style="fill:#263238;" d="M422.34,254.877c0.037,0.038-0.463,0.594-1.317,1.446c-0.854,0.852-2.068,1.996-3.452,3.21
					c-1.385,1.214-2.678,2.267-3.635,3.003c-0.957,0.736-1.573,1.159-1.606,1.117c-0.035-0.044,0.52-0.544,1.429-1.333
					c1.015-0.881,2.22-1.927,3.551-3.084c1.32-1.168,2.515-2.226,3.521-3.116C421.733,255.321,422.301,254.837,422.34,254.877z"/>
			</g>
		</g>
		<g>
			<g>
				<path style="fill:#263238;" d="M432.794,263.298c-0.048,0.03-0.572-0.721-1.403-1.944c-0.903-1.318-2.024-2.954-3.264-4.763
					c-1.266-1.792-2.41-3.412-3.332-4.717c-0.857-1.205-1.379-1.957-1.335-1.991c0.042-0.032,0.643,0.66,1.559,1.824
					c0.916,1.164,2.141,2.803,3.433,4.658c1.29,1.855,2.401,3.574,3.174,4.837C432.399,262.466,432.839,263.27,432.794,263.298z"/>
			</g>
		</g>
		<g>
			<g>
				<path style="fill:#263238;" d="M427.318,236.814c0.059,0.092-3.414,2.43-7.756,5.221c-4.343,2.792-7.911,4.981-7.97,4.889
					c-0.059-0.092,3.413-2.429,7.756-5.222C423.69,238.911,427.259,236.722,427.318,236.814z"/>
			</g>
		</g>
		<g>
			<g>
				<path style="fill:#263238;" d="M437.11,247.383c-0.076,0.078-2.428-2.095-5.253-4.854c-2.825-2.76-5.053-5.059-4.977-5.137
					c0.076-0.078,2.428,2.095,5.253,4.854C434.958,245.005,437.186,247.305,437.11,247.383z"/>
			</g>
		</g>
		<g>
			<g>
				<path style="fill:#E8505B;" d="M439.572,247.171l2.981-0.247c2.116-0.175,4.17-0.801,6.02-1.843
					c0.914-0.515,1.833-1.019,2.806-1.409c3.686-1.48,7.798-1.215,11.765-1.414c6.474-0.325,12.88-1.962,18.715-4.786
					c0.337-0.163,0.635-0.412,0.815-0.74c0.612-1.115-0.525-2.109-1.504-2.712c-5.022-3.095-10.135-6.229-15.83-7.765
					c-5.696-1.536-12.161-1.276-17.021,2.068C442.615,232.249,440.536,240.313,439.572,247.171"/>
			</g>
			<g>
				<g>
					<path style="fill:#263238;" d="M482.742,236.366c-0.007,0.012-0.18-0.07-0.505-0.235c-0.357-0.187-0.827-0.433-1.413-0.74
						c-1.225-0.645-2.99-1.596-5.219-2.665c-2.231-1.057-4.934-2.251-8.078-3.114c-3.132-0.87-6.745-1.326-10.471-0.848
						c-3.71,0.489-7.127,1.933-9.545,4.099c-2.434,2.159-3.921,4.766-4.97,6.981c-1.047,2.234-1.693,4.135-2.163,5.436
						c-0.22,0.624-0.396,1.123-0.531,1.504c-0.124,0.343-0.196,0.521-0.209,0.517c-0.013-0.004,0.033-0.19,0.133-0.541
						c0.116-0.386,0.269-0.894,0.46-1.528c0.426-1.318,1.031-3.236,2.055-5.504c1.026-2.247,2.505-4.91,4.983-7.137
						c2.464-2.235,5.96-3.722,9.735-4.218c3.789-0.486,7.461-0.01,10.619,0.889c3.173,0.891,5.88,2.12,8.104,3.213
						c2.222,1.105,3.967,2.095,5.171,2.781c0.571,0.334,1.029,0.601,1.378,0.805C482.588,236.249,482.748,236.354,482.742,236.366z"
						/>
				</g>
			</g>
			<g>
				<g>
					<path style="fill:#263238;" d="M475.582,240.212c-0.061,0.091-3.96-2.431-8.708-5.633c-4.749-3.202-8.548-5.871-8.487-5.962
						c0.061-0.091,3.959,2.431,8.708,5.633C471.844,237.453,475.644,240.122,475.582,240.212z"/>
				</g>
			</g>
			<g>
				<g>
					<path style="fill:#263238;" d="M471.837,228.245c0.021,0.104-1.332,0.455-3.043,0.61c-1.712,0.16-3.105,0.061-3.104-0.045
						c0-0.113,1.378-0.192,3.068-0.349C470.447,228.308,471.816,228.134,471.837,228.245z"/>
				</g>
			</g>
			<g>
				<g>
					<path style="fill:#263238;" d="M454.356,225.113c0.094,0.056-0.478,1.201-1.279,2.558c-0.801,1.357-1.526,2.412-1.62,2.357
						c-0.094-0.056,0.478-1.201,1.279-2.558C453.536,226.112,454.262,225.057,454.356,225.113z"/>
				</g>
			</g>
			<g>
				<g>
					<path style="fill:#263238;" d="M457.849,242.509c-0.027,0.044-0.75-0.334-1.876-1.017c-1.126-0.684-2.648-1.685-4.275-2.866
						c-1.626-1.182-3.061-2.298-4.091-3.115c-1.029-0.819-1.652-1.344-1.619-1.388c0.032-0.043,0.714,0.403,1.787,1.164
						c1.17,0.85,2.587,1.88,4.155,3.019c1.621,1.177,3.11,2.21,4.194,2.951C457.209,241.998,457.879,242.46,457.849,242.509z"/>
				</g>
			</g>
		</g>
		<g>
			<g>
				<path style="fill:#E8505B;" d="M443.962,259.836c-2.844-0.751-6.233,2.015-6.819,4.897c-0.586,2.882,0.495,5.83,1.76,8.484
					c2.801,5.877,6.667,11.328,11.759,15.385c5.092,4.057,11.469,6.652,17.979,6.619c-1.202-5.583,0.319-11.417-0.352-17.089
					c-0.585-4.951-2.893-9.681-6.436-13.188c-3.543-3.507-8.295-5.768-13.251-6.304C446.786,258.445,444.686,258.16,443.962,259.836
					"/>
			</g>
			<g>
				<g>
					<path style="fill:#263238;" d="M468.641,295.221c-0.006,0.012-0.145-0.053-0.405-0.188c-0.257-0.14-0.627-0.366-1.064-0.714
						c-0.893-0.677-1.915-1.984-2.808-3.755c-0.454-0.88-0.96-1.836-1.455-2.894c-0.48-1.062-0.992-2.193-1.53-3.382
						c-0.543-1.185-1.139-2.415-1.88-3.614c-0.737-1.202-1.615-2.376-2.587-3.518c-1.947-2.287-4.035-4.265-5.846-6.155
						c-1.82-1.882-3.351-3.696-4.457-5.348c-1.117-1.646-1.794-3.12-2.178-4.16c-0.183-0.524-0.315-0.935-0.38-1.22
						c-0.072-0.283-0.103-0.433-0.09-0.436c0.037-0.011,0.198,0.581,0.613,1.6c0.425,1.013,1.131,2.45,2.265,4.058
						c1.124,1.615,2.662,3.392,4.488,5.253c1.818,1.87,3.919,3.843,5.886,6.153c0.982,1.154,1.87,2.346,2.616,3.572
						c0.749,1.224,1.345,2.472,1.881,3.666c0.526,1.193,1.026,2.329,1.496,3.395c0.477,1.053,0.97,2.019,1.406,2.904
						c0.856,1.776,1.812,3.062,2.658,3.765C468.102,294.918,468.664,295.183,468.641,295.221z"/>
				</g>
			</g>
			<g>
				<g>
					<path style="fill:#263238;" d="M453.937,290.581c-0.052-0.01,0.038-0.743,0.261-1.914c0.223-1.171,0.588-2.778,1.081-4.53
						c0.494-1.752,1.022-3.314,1.443-4.428c0.421-1.115,0.727-1.787,0.776-1.769c0.053,0.02-0.16,0.725-0.512,1.859
						c-0.352,1.135-0.835,2.702-1.327,4.445c-0.49,1.743-0.897,3.331-1.188,4.483C454.179,289.879,453.992,290.592,453.937,290.581z
						"/>
				</g>
			</g>
			<g>
				<g>
					<path style="fill:#263238;" d="M468.102,276.876c-0.017,0.054-0.778-0.14-2.003-0.461c-1.225-0.32-2.917-0.758-4.799-1.182
						c-1.883-0.423-3.599-0.753-4.844-0.989c-1.244-0.235-2.015-0.386-2.007-0.443c0.007-0.052,0.792,0.001,2.051,0.166
						c1.259,0.166,2.993,0.454,4.886,0.879c1.892,0.427,3.582,0.91,4.791,1.3C467.386,276.538,468.118,276.826,468.102,276.876z"/>
				</g>
			</g>
			<g>
				<g>
					<path style="fill:#263238;" d="M443.385,280.858c-0.052-0.01,0.058-0.857,0.308-2.215c0.25-1.357,0.648-3.224,1.18-5.262
						c0.533-2.039,1.098-3.862,1.543-5.168c0.445-1.306,0.764-2.099,0.814-2.083c0.054,0.018-0.171,0.841-0.547,2.166
						c-0.376,1.325-0.896,3.154-1.427,5.185c-0.53,2.031-0.969,3.881-1.289,5.22C443.647,280.041,443.441,280.869,443.385,280.858z"
						/>
				</g>
			</g>
			<g>
				<g>
					<path style="fill:#263238;" d="M461.578,264.932c-0.012,0.109-3.561-0.178-7.927-0.642c-4.368-0.463-7.898-0.926-7.887-1.035
						c0.012-0.109,3.561,0.178,7.928,0.641C458.059,264.36,461.59,264.824,461.578,264.932z"/>
				</g>
			</g>
		</g>
		<g>
			<g>
				<path style="fill:#455A64;" d="M458.978,307.98c0,0.109-12.478,0.198-27.867,0.198c-15.394,0-27.87-0.089-27.87-0.198
					c0-0.109,12.475-0.198,27.87-0.198C446.5,307.782,458.978,307.871,458.978,307.98z"/>
			</g>
		</g>
		<g>
			<g>
				<path style="fill:#455A64;" d="M450.297,324.038c0,0.109-8.407,0.198-18.776,0.198c-10.372,0-18.778-0.089-18.778-0.198
					c0-0.109,8.406-0.198,18.778-0.198C441.889,323.84,450.297,323.928,450.297,324.038z"/>
			</g>
		</g>
		<g>
			<g>
				<path style="fill:#455A64;" d="M450.624,326.333c0,0.109-8.407,0.198-18.776,0.198c-10.372,0-18.778-0.089-18.778-0.198
					c0-0.109,8.406-0.198,18.778-0.198C442.217,326.136,450.624,326.224,450.624,326.333z"/>
			</g>
		</g>
		<g>
			<g>
				<path style="fill:#455A64;" d="M450.624,322.145c0,0.109-8.696,0.198-19.421,0.198c-10.729,0-19.423-0.089-19.423-0.198
					c0-0.109,8.694-0.198,19.423-0.198C441.928,321.947,450.624,322.036,450.624,322.145z"/>
			</g>
		</g>
	</g>
	<g>
		<g>
			<g>
				<path style="fill:#E8505B;" d="M33.156,367.703c3.523,0.154,6.814,2.095,9.115,4.767c2.302,2.671,3.698,6.018,4.58,9.432
					c1.707,6.605,0.556,14.374-1.38,20.916c-7.112-2.611-11.447-10.258-13.402-14.275C28.98,382.193,27.25,368.841,33.156,367.703"
					/>
				<path style="fill:#E8505B;" d="M55.67,410.894c-2.223-3.251-2.238-7.747-0.428-11.245c1.809-3.499,5.25-6.004,9.026-7.128
					c1.746-0.52,3.768-0.727,5.273,0.298c1.408,0.958,2.003,2.819,1.806,4.51c-0.197,1.691-1.068,3.233-2.092,4.594
					C65.746,406.589,61.494,410.461,55.67,410.894"/>
				<g style="opacity:0.3;">
					<path style="fill:#FFFFFF;" d="M55.67,410.894c-2.223-3.251-2.238-7.747-0.428-11.245c1.809-3.499,5.25-6.004,9.026-7.128
						c1.746-0.52,3.768-0.727,5.273,0.298c1.408,0.958,2.003,2.819,1.806,4.51c-0.197,1.691-1.068,3.233-2.092,4.594
						C65.746,406.589,61.494,410.461,55.67,410.894"/>
				</g>
				<path style="fill:#E8505B;" d="M48.079,417.888c-4.356-7.071-12.312-11.787-20.606-12.216c-2.112-0.109-4.641,0.298-5.542,2.212
					c-0.903,1.916,0.404,4.135,1.873,5.661c6.112,6.35,16.27,8.397,24.365,4.909"/>
				<g style="opacity:0.3;">
					<path style="fill:#FFFFFF;" d="M48.079,417.888c-4.356-7.071-12.312-11.787-20.606-12.216
						c-2.112-0.109-4.641,0.298-5.542,2.212c-0.903,1.916,0.404,4.135,1.873,5.661c6.112,6.35,16.27,8.397,24.365,4.909"/>
				</g>
				<g>
					<path style="fill:#263238;" d="M55.73,433.552c-0.03,0.004-0.134-0.494-0.291-1.399c-0.157-0.906-0.369-2.218-0.588-3.848
						c-0.419-3.249-0.935-7.824-0.288-12.844c0.652-5.024,2.667-9.307,4.761-11.868c1.036-1.293,2.025-2.209,2.759-2.768
						c0.353-0.297,0.667-0.477,0.864-0.617c0.203-0.133,0.313-0.197,0.322-0.184c0.076,0.085-1.715,1.156-3.694,3.764
						c-1.995,2.568-3.924,6.785-4.567,11.732c-0.638,4.949-0.18,9.495,0.158,12.746c0.181,1.572,0.332,2.872,0.446,3.861
						C55.717,433.04,55.761,433.547,55.73,433.552z"/>
				</g>
				<g>
					<path style="fill:#263238;" d="M35.371,377.754c0.014-0.006,0.11,0.182,0.278,0.545c0.183,0.406,0.421,0.936,0.718,1.596
						c0.616,1.389,1.483,3.41,2.534,5.916c2.103,5.011,4.914,11.974,7.847,19.731c2.932,7.76,5.429,14.842,7.166,19.992
						c0.869,2.574,1.556,4.664,2.013,6.113c0.214,0.691,0.386,1.246,0.517,1.672c0.114,0.384,0.166,0.588,0.151,0.592
						c-0.015,0.005-0.096-0.189-0.237-0.564c-0.152-0.418-0.35-0.965-0.597-1.645c-0.524-1.481-1.254-3.541-2.147-6.065
						c-1.814-5.121-4.357-12.181-7.287-19.937c-2.931-7.752-5.694-14.729-7.721-19.769c-0.999-2.484-1.814-4.511-2.401-5.969
						c-0.264-0.673-0.477-1.214-0.64-1.629C35.425,377.96,35.357,377.76,35.371,377.754z"/>
				</g>
				<g>
					<path style="fill:#263238;" d="M30.848,411.138c0.003-0.031,0.487-0.001,1.365,0.081c0.44,0.033,0.977,0.092,1.59,0.223
						c0.614,0.123,1.325,0.221,2.079,0.455c0.383,0.106,0.781,0.216,1.195,0.331c0.414,0.119,0.829,0.292,1.268,0.445
						c0.885,0.289,1.78,0.722,2.732,1.153c1.867,0.936,3.837,2.142,5.721,3.653c1.865,1.536,3.448,3.218,4.747,4.854
						c0.616,0.844,1.223,1.632,1.687,2.439c0.239,0.398,0.493,0.769,0.694,1.15c0.197,0.381,0.386,0.749,0.568,1.102
						c0.384,0.691,0.625,1.367,0.871,1.942c0.254,0.573,0.421,1.086,0.543,1.511c0.259,0.843,0.388,1.311,0.358,1.319
						c-0.101,0.035-0.603-1.859-2.055-4.626c-0.188-0.345-0.384-0.703-0.587-1.075c-0.207-0.372-0.465-0.734-0.708-1.122
						c-0.471-0.788-1.082-1.557-1.698-2.383c-1.299-1.6-2.867-3.247-4.705-4.761c-1.857-1.489-3.79-2.686-5.621-3.631
						c-0.935-0.434-1.811-0.875-2.679-1.175c-0.43-0.158-0.837-0.337-1.243-0.464c-0.406-0.123-0.797-0.241-1.172-0.354
						C32.791,411.348,30.835,411.243,30.848,411.138z"/>
				</g>
			</g>
			<path style="fill:#E8505B;" d="M55.526,452.793h-1.049c-6.787,0-12.288-5.502-12.288-12.288v-13.338h25.626v13.338
				C67.815,447.291,62.313,452.793,55.526,452.793z"/>
		</g>
		<path style="opacity:0.3;" d="M55.526,452.793h-1.049c-6.787,0-12.288-5.502-12.288-12.288v-13.338h25.626v13.338
			C67.815,447.291,62.313,452.793,55.526,452.793z"/>
		<g>
			<path style="fill:#FAFAFA;" d="M59.501,427.235c0.025,0.012-0.069,0.286-0.294,0.758c-0.224,0.473-0.595,1.135-1.137,1.901
				c-1.07,1.529-2.939,3.442-5.512,4.755c-2.573,1.314-5.219,1.706-7.085,1.676c-0.938-0.01-1.693-0.098-2.207-0.194
				c-0.514-0.095-0.791-0.179-0.786-0.207c0.012-0.081,1.148,0.143,2.988,0.082c1.829-0.052,4.388-0.483,6.885-1.759
				c2.496-1.274,4.347-3.093,5.461-4.544C58.943,428.248,59.429,427.197,59.501,427.235z"/>
		</g>
		<g>
			<path style="fill:#FAFAFA;" d="M67.572,444.485c-0.007,0.025-0.306-0.019-0.829-0.176c-0.523-0.154-1.264-0.451-2.109-0.949
				c-1.681-0.97-3.783-2.953-4.786-5.832c-0.991-2.884-0.563-5.743,0.16-7.544c0.357-0.914,0.756-1.605,1.072-2.05
				c0.315-0.446,0.523-0.666,0.543-0.65c0.077,0.049-0.695,0.997-1.316,2.808c-0.627,1.78-0.981,4.53-0.033,7.288
				c0.959,2.753,2.936,4.697,4.529,5.709C66.41,444.131,67.603,444.399,67.572,444.485z"/>
		</g>
		<g>
			<path style="fill:#FAFAFA;" d="M61.005,452.085c-0.11,0.005,0.152-1.514-0.537-3.785c-0.336-1.129-0.968-2.403-1.908-3.641
				c-0.954-1.227-2.236-2.4-3.792-3.299c-3.136-1.811-6.571-2.004-8.89-1.709c-2.358,0.286-3.725,0.915-3.755,0.825
				c-0.01-0.024,0.32-0.196,0.949-0.437c0.628-0.24,1.569-0.519,2.763-0.704c2.354-0.383,5.904-0.243,9.159,1.635
				c1.609,0.929,2.928,2.154,3.896,3.437c0.955,1.294,1.577,2.628,1.884,3.803c0.314,1.173,0.383,2.162,0.354,2.835
				C61.101,451.721,61.029,452.088,61.005,452.085z"/>
		</g>
	</g>
</g>
<g id="Signals">
	<g>
		<g>
			<g>
				<path style="fill:#263238;" d="M347.714,124.502c-0.144,0-0.26-21.091-0.26-47.101c0-26.02,0.117-47.106,0.26-47.106
					c0.144,0,0.26,21.086,0.26,47.106C347.975,103.412,347.858,124.502,347.714,124.502z"/>
			</g>
		</g>
		<g>
			<g>
				<path style="fill:#263238;" d="M417.771,124.502c-0.144,0-0.26-21.091-0.26-47.101c0-26.02,0.117-47.106,0.26-47.106
					c0.144,0,0.26,21.086,0.26,47.106C418.031,103.412,417.915,124.502,417.771,124.502z"/>
			</g>
		</g>
		<g>
			<g>
				<path style="fill:#E8505B;" d="M425.809,101.68h-85.739c-5.643,0-10.218-4.575-10.218-10.218V77.097
					c0-5.643,4.575-10.218,10.218-10.218h86.281c5.642,0,10.217,4.574,10.217,10.217v13.826
					C436.568,96.864,431.751,101.68,425.809,101.68z"/>
			</g>
			<g>
				<path style="fill:#FAFAFA;" d="M342.868,91.113L342.868,91.113c0.893,0.007,1.623-0.711,1.631-1.604l0.082-10.059l14.215,14.448
					c0.627,0.637,1.651,0.645,2.288,0.019l0,0c0.637-0.627,0.645-1.651,0.019-2.288L346.887,77.18l10.059,0.082
					c0.893,0.007,1.623-0.711,1.631-1.604l0,0c0.007-0.893-0.711-1.623-1.604-1.631L341.391,73.9l-0.127,15.582
					C341.257,90.376,341.975,91.106,342.868,91.113z"/>
			</g>
			<g>
				<path style="fill:#FAFAFA;" d="M380.025,91.777v2.262h-7.85v-1.786l3.774-3.529c0.807-0.749,0.922-1.21,0.922-1.628
					c0-0.648-0.433-1.037-1.296-1.037c-0.735,0-1.397,0.332-1.801,0.979l-2.117-1.181c0.763-1.268,2.189-2.103,4.177-2.103
					c2.319,0,3.918,1.196,3.918,3.068c0,0.979-0.273,1.873-1.714,3.198l-1.901,1.757H380.025z"/>
				<path style="fill:#FAFAFA;" d="M380.848,88.997c0-3.328,1.873-5.243,4.451-5.243c2.564,0,4.436,1.916,4.436,5.243
					c0,3.328-1.872,5.243-4.436,5.243C382.721,94.24,380.848,92.325,380.848,88.997z M386.87,88.997c0-2.118-0.662-2.91-1.57-2.91
					c-0.922,0-1.584,0.792-1.584,2.91s0.662,2.91,1.584,2.91C386.208,91.907,386.87,91.115,386.87,88.997z"/>
				<path style="fill:#FAFAFA;" d="M390.949,88.882h4.206v2.103h-4.206V88.882z"/>
				<path style="fill:#FAFAFA;" d="M403.813,90.884c0,1.714-1.354,3.356-4.393,3.356c-1.397,0-2.881-0.346-3.918-0.994l1.037-2.146
					c0.807,0.547,1.844,0.836,2.794,0.836c0.966,0,1.6-0.375,1.6-1.051c0-0.605-0.447-0.979-1.541-0.979h-1.196v-1.801l1.801-1.944
					h-3.975v-2.204h7.289v1.786l-2.089,2.247C402.92,88.349,403.813,89.444,403.813,90.884z"/>
				<path style="fill:#FAFAFA;" d="M412.515,90.797c0,1.801-1.354,3.443-4.394,3.443c-1.396,0-2.881-0.346-3.903-0.994l1.022-2.146
					c0.821,0.547,1.83,0.836,2.795,0.836c0.965,0,1.613-0.389,1.613-1.066c0-0.619-0.418-1.022-1.959-1.022h-2.737l0.505-5.892
					h6.424v2.204h-4.063l-0.129,1.469h0.677C411.348,87.628,412.515,89.011,412.515,90.797z"/>
			</g>
			<g>
				<path style="fill:#FAFAFA;" d="M374.966,76.783h0.524v1.491c-0.382,0.322-0.912,0.486-1.447,0.486
					c-1.175,0-2.037-0.825-2.037-1.956c0-1.13,0.862-1.955,2.048-1.955c0.607,0,1.12,0.202,1.47,0.59l-0.339,0.338
					c-0.316-0.306-0.678-0.442-1.108-0.442c-0.886,0-1.524,0.617-1.524,1.469c0,0.841,0.639,1.47,1.518,1.47
					c0.322,0,0.623-0.071,0.896-0.246V76.783z"/>
				<path style="fill:#FAFAFA;" d="M378.97,77.76h-2.032l-0.42,0.956h-0.564l1.732-3.824h0.54l1.737,3.824h-0.573L378.97,77.76z
					 M378.779,77.323l-0.824-1.874l-0.825,1.874H378.779z"/>
				<path style="fill:#FAFAFA;" d="M381.1,75.368h-1.311v-0.475h3.163v0.475h-1.31v3.349H381.1V75.368z"/>
				<path style="fill:#FAFAFA;" d="M386.322,78.241v0.475h-2.775v-3.824h2.699v0.475h-2.152v1.174h1.917v0.464h-1.917v1.235H386.322
					z"/>
				<path style="fill:#FAFAFA;" d="M386.856,78.279l0.202-0.426c0.284,0.257,0.771,0.443,1.262,0.443
					c0.661,0,0.945-0.257,0.945-0.59c0-0.934-2.316-0.344-2.316-1.764c0-0.59,0.459-1.093,1.465-1.093
					c0.447,0,0.912,0.12,1.228,0.339l-0.18,0.437c-0.334-0.213-0.711-0.312-1.049-0.312c-0.65,0-0.929,0.274-0.929,0.606
					c0,0.934,2.315,0.35,2.315,1.753c0,0.584-0.47,1.087-1.48,1.087C387.736,78.76,387.163,78.563,386.856,78.279z"/>
			</g>
		</g>
		<g>
			<g>
				<path style="fill:#E8505B;" d="M428.63,147.467h-91.38c-4.085,0-7.397-3.312-7.397-7.397v-20.007
					c0-4.085,3.312-7.397,7.397-7.397h91.922c4.085,0,7.396,3.311,7.396,7.396v19.467
					C436.568,143.913,433.014,147.467,428.63,147.467z"/>
			</g>
			<g>
				<path style="fill:#FAFAFA;" d="M352.282,118.893L352.282,118.893c-0.617,0.646-0.593,1.67,0.054,2.287l7.278,6.945
					l-20.263,0.475c-0.893,0.021-1.6,0.762-1.579,1.655l0,0c0.021,0.893,0.762,1.6,1.655,1.579l20.263-0.475l-6.945,7.278
					c-0.617,0.646-0.593,1.67,0.054,2.287l0,0c0.646,0.617,1.67,0.593,2.287-0.054l10.757-11.273l-11.273-10.757
					C353.923,118.223,352.899,118.247,352.282,118.893z"/>
			</g>
			<g>
				<path style="fill:#FAFAFA;" d="M379.997,136.671c0,1.714-1.355,3.356-4.394,3.356c-1.397,0-2.881-0.346-3.918-0.994l1.037-2.146
					c0.807,0.547,1.844,0.836,2.794,0.836c0.966,0,1.6-0.374,1.6-1.051c0-0.605-0.447-0.98-1.541-0.98h-1.196v-1.801l1.801-1.944
					h-3.975v-2.204h7.289v1.786l-2.089,2.247C379.103,134.136,379.997,135.231,379.997,136.671z"/>
				<path style="fill:#FAFAFA;" d="M389.548,136.584c0,2.104-1.758,3.443-3.962,3.443c-2.822,0-4.666-1.7-4.666-4.969
					c0-3.515,2.175-5.517,5.358-5.517c1.139,0,2.233,0.259,2.968,0.735l-1.037,2.045c-0.576-0.403-1.21-0.519-1.858-0.519
					c-1.44,0-2.405,0.807-2.549,2.348c0.561-0.49,1.324-0.749,2.275-0.749C387.978,133.401,389.548,134.655,389.548,136.584z
					 M386.783,136.714c0-0.778-0.562-1.268-1.383-1.268c-0.821,0-1.397,0.519-1.397,1.282c0,0.749,0.547,1.268,1.412,1.268
					C386.221,137.996,386.783,137.506,386.783,136.714z"/>
				<path style="fill:#FAFAFA;" d="M390.545,134.669h4.206v2.103h-4.206V134.669z"/>
				<path style="fill:#FAFAFA;" d="M405.469,137.895h-1.498v1.93h-2.78v-1.93h-5.33v-1.858l4.523-6.295h2.952l-4.104,5.892h2.045
					v-1.714h2.694v1.714h1.498V137.895z"/>
				<path style="fill:#FAFAFA;" d="M413.696,129.742v1.786l-3.558,8.297h-3.111l3.399-7.821h-2.65v1.556h-2.435v-3.817H413.696z"/>
			</g>
			<g>
				<path style="fill:#FAFAFA;" d="M374.966,122.569h0.524v1.491c-0.382,0.322-0.912,0.486-1.447,0.486
					c-1.175,0-2.037-0.825-2.037-1.956c0-1.13,0.862-1.956,2.048-1.956c0.607,0,1.12,0.202,1.47,0.59l-0.339,0.338
					c-0.316-0.306-0.678-0.442-1.108-0.442c-0.886,0-1.524,0.617-1.524,1.469c0,0.841,0.639,1.47,1.518,1.47
					c0.322,0,0.623-0.071,0.896-0.246V122.569z"/>
				<path style="fill:#FAFAFA;" d="M378.97,123.546h-2.032l-0.42,0.956h-0.564l1.732-3.824h0.54l1.737,3.824h-0.573L378.97,123.546z
					 M378.779,123.109l-0.824-1.873l-0.825,1.873H378.779z"/>
				<path style="fill:#FAFAFA;" d="M381.1,121.154h-1.311v-0.475h3.163v0.475h-1.31v3.349H381.1V121.154z"/>
				<path style="fill:#FAFAFA;" d="M386.322,124.027v0.475h-2.775v-3.824h2.699v0.475h-2.152v1.174h1.917v0.464h-1.917v1.235
					H386.322z"/>
				<path style="fill:#FAFAFA;" d="M386.856,124.065l0.202-0.426c0.284,0.257,0.771,0.443,1.262,0.443
					c0.661,0,0.945-0.257,0.945-0.59c0-0.934-2.316-0.344-2.316-1.764c0-0.59,0.459-1.093,1.465-1.093
					c0.447,0,0.912,0.12,1.228,0.339l-0.18,0.437c-0.334-0.213-0.711-0.312-1.049-0.312c-0.65,0-0.929,0.273-0.929,0.606
					c0,0.934,2.315,0.35,2.315,1.753c0,0.584-0.47,1.087-1.48,1.087C387.736,124.546,387.163,124.349,386.856,124.065z"/>
			</g>
		</g>
	</g>
	<g>
		<g>
			<g>
				<path style="fill:#263238;" d="M58.834,68.019c-0.144,0-0.26-8.445-0.26-18.861c0-10.419,0.117-18.862,0.26-18.862
					c0.144,0,0.26,8.444,0.26,18.862C59.094,59.574,58.978,68.019,58.834,68.019z"/>
			</g>
		</g>
		<g>
			<g>
				<path style="fill:#263238;" d="M185.873,68.574c-0.144,0-0.26-8.569-0.26-19.138c0-10.572,0.117-19.14,0.26-19.14
					c0.144,0,0.26,8.568,0.26,19.14C186.133,60.004,186.017,68.574,185.873,68.574z"/>
			</g>
		</g>
		<g>
			<g>
				<path style="fill:#E8505B;" d="M208.779,111.906H40.15c-4.026,0-7.291-3.264-7.291-7.291V74.17c0-4.026,3.264-7.291,7.291-7.291
					h168.629c4.027,0,7.291,3.264,7.291,7.291v30.446C216.07,108.642,212.806,111.906,208.779,111.906z"/>
			</g>
			<g>
				<path style="fill:#FAFAFA;" d="M90.097,85.369h3.684c2.895,0,4.846,1.861,4.846,4.523c0,2.662-1.951,4.523-4.846,4.523h-3.684
					V85.369z M93.729,93.589c2.403,0,3.954-1.525,3.954-3.696c0-2.171-1.551-3.696-3.954-3.696h-2.676v7.393H93.729z"/>
				<path style="fill:#FAFAFA;" d="M106.501,91.301h-5.688c0.104,1.422,1.189,2.365,2.676,2.365c0.827,0,1.563-0.297,2.081-0.892
					l0.517,0.595c-0.607,0.724-1.551,1.111-2.624,1.111c-2.119,0-3.566-1.447-3.566-3.463s1.408-3.451,3.321-3.451
					c1.913,0,3.296,1.409,3.296,3.451C106.513,91.095,106.501,91.198,106.501,91.301z M100.813,90.616h4.821
					c-0.116-1.331-1.086-2.262-2.417-2.262C101.899,88.354,100.93,89.285,100.813,90.616z"/>
				<path style="fill:#FAFAFA;" d="M115.277,91.017c0,2.068-1.447,3.463-3.386,3.463c-1.086,0-2.017-0.465-2.585-1.344v3.787h-0.918
					v-9.306h0.879v1.344c0.556-0.905,1.499-1.396,2.624-1.396C113.83,87.566,115.277,88.962,115.277,91.017z M114.359,91.017
					c0-1.577-1.098-2.649-2.532-2.649c-1.448,0-2.533,1.073-2.533,2.649c0,1.589,1.085,2.649,2.533,2.649
					C113.261,93.666,114.359,92.606,114.359,91.017z"/>
				<path style="fill:#FAFAFA;" d="M122.244,90.202v4.213h-0.879v-1.06c-0.413,0.698-1.215,1.124-2.339,1.124
					c-1.538,0-2.481-0.801-2.481-1.977c0-1.047,0.672-1.926,2.623-1.926h2.159v-0.414c0-1.163-0.659-1.796-1.926-1.796
					c-0.879,0-1.706,0.31-2.262,0.801l-0.414-0.685c0.686-0.582,1.693-0.918,2.766-0.918
					C121.249,87.566,122.244,88.445,122.244,90.202z M121.327,92.374v-1.111h-2.133c-1.318,0-1.745,0.517-1.745,1.215
					c0,0.788,0.634,1.279,1.719,1.279C120.202,93.757,120.964,93.265,121.327,92.374z"/>
				<path style="fill:#FAFAFA;" d="M128.165,87.566v0.892c-0.077,0-0.155-0.013-0.22-0.013c-1.421,0-2.287,0.905-2.287,2.507v3.464
					h-0.918v-6.798h0.879v1.331C126.045,88.044,126.912,87.566,128.165,87.566z"/>
				<path style="fill:#FAFAFA;" d="M133.698,94.002c-0.361,0.323-0.904,0.478-1.435,0.478c-1.279,0-1.99-0.724-1.99-1.977v-4.11
					h-1.215v-0.776h1.215v-1.486h0.918v1.486h2.067v0.776h-2.067v4.058c0,0.801,0.413,1.241,1.176,1.241
					c0.375,0,0.75-0.116,1.008-0.349L133.698,94.002z"/>
				<path style="fill:#FAFAFA;" d="M141.492,87.618v6.798h-0.879v-1.241c-0.478,0.827-1.356,1.305-2.442,1.305
					c-1.731,0-2.869-0.969-2.869-2.921v-3.942h0.918v3.852c0,1.448,0.749,2.184,2.042,2.184c1.421,0,2.313-0.917,2.313-2.468v-3.567
					H141.492z"/>
				<path style="fill:#FAFAFA;" d="M147.49,87.566v0.892c-0.077,0-0.154-0.013-0.22-0.013c-1.421,0-2.287,0.905-2.287,2.507v3.464
					h-0.918v-6.798h0.879v1.331C145.371,88.044,146.237,87.566,147.49,87.566z"/>
				<path style="fill:#FAFAFA;" d="M155.001,91.301h-5.688c0.104,1.422,1.189,2.365,2.676,2.365c0.827,0,1.564-0.297,2.081-0.892
					l0.517,0.595c-0.607,0.724-1.551,1.111-2.624,1.111c-2.119,0-3.566-1.447-3.566-3.463s1.408-3.451,3.321-3.451
					s3.296,1.409,3.296,3.451C155.013,91.095,155.001,91.198,155.001,91.301z M149.313,90.616h4.821
					c-0.116-1.331-1.086-2.262-2.417-2.262C150.399,88.354,149.43,89.285,149.313,90.616z"/>
				<path style="fill:#FAFAFA;" d="M155.945,93.64l0.414-0.724c0.542,0.426,1.46,0.762,2.416,0.762c1.293,0,1.822-0.439,1.822-1.111
					c0-1.771-4.406-0.375-4.406-3.063c0-1.111,0.956-1.938,2.688-1.938c0.879,0,1.836,0.245,2.404,0.633l-0.4,0.736
					c-0.595-0.414-1.306-0.582-2.004-0.582c-1.228,0-1.771,0.479-1.771,1.124c0,1.836,4.407,0.452,4.407,3.063
					c0,1.176-1.034,1.938-2.805,1.938C157.587,94.48,156.501,94.118,155.945,93.64z"/>
			</g>
			<g>
				<path style="fill:#FAFAFA;" d="M184.922,85.235L184.922,85.235c-0.384,0.38-0.387,1-0.007,1.384l4.281,4.325l-12.262-0.063
					c-0.54-0.003-0.981,0.433-0.984,0.974l0,0c-0.003,0.541,0.433,0.981,0.974,0.984l12.262,0.063l-4.326,4.281
					c-0.384,0.38-0.387,1-0.007,1.384l0,0c0.38,0.384,1,0.387,1.384,0.007l6.7-6.632l-6.632-6.7
					C185.926,84.858,185.307,84.854,184.922,85.235z"/>
			</g>
			<g>
				<g>
					<rect x="46.756" y="97.382" style="fill:#FAFAFA;" width="25.32" height="1.839"/>
				</g>
				<g>
					<path style="fill:#FAFAFA;" d="M74.838,81.568c-0.136-0.198-0.313-0.354-0.51-0.486c-0.002-0.001-2.586-0.921-4.027-0.921
						c-2.195,0-3.838,0.858-5.667,1.943c-0.672,0.399-1.444,0.857-2.267,1.345c-0.008,0.005-0.017,0.006-0.025,0.005l-7.954-1.367
						c-0.128-0.022-0.259-0.005-0.377,0.048l-1.265,0.574c-0.309,0.14-0.314,0.577-0.009,0.724l5.26,2.54
						c0.027,0.013,0.028,0.051,0.002,0.066c-2.939,1.744-5.457,3.237-5.457,3.237c-0.027,0.016-0.054,0.033-0.082,0.049
						c-1.027,0.591-2.242,0.778-3.404,0.515l-2.813-0.637c-0.143-0.032-0.293-0.033-0.431,0.016
						c-0.513,0.184-0.641,0.842-0.245,1.205l3.159,2.898c0.495,0.454,1.207,0.582,1.829,0.33l1.571-0.638l8.93-3.76l12.619-5.313
						C74.927,83.434,75.413,82.404,74.838,81.568z"/>
				</g>
				<g>
					<path style="fill:#FAFAFA;" d="M63.439,89.393l-3.744,1.566l-0.708,3.097c-0.041,0.181,0.095,0.354,0.281,0.356l0.368,0.003
						c0.503,0.005,0.973-0.251,1.244-0.675L63.439,89.393z"/>
				</g>
			</g>
		</g>
	</g>
</g>
</svg>
